solid 3d_modell
facet normal -3.167848608169211e-14 1.0 0.0
  outer loop
    vertex 1444.1897720658346 208.37689312746411 18.49999999999999
    vertex 1467.1897720655675 208.3768931274646 2.99999999999999
    vertex 1444.1897720658346 208.37689312746411 2.99999999999999
  endloop
endfacet
facet normal -3.167848608169211e-14 1.0 0.0
  outer loop
    vertex 1467.1897720655675 208.3768931274646 2.99999999999999
    vertex 1444.1897720658346 208.37689312746411 18.49999999999999
    vertex 1467.1897720655675 208.3768931274646 18.49999999999999
  endloop
endfacet
facet normal 1.0 3.167848608169211e-14 0.0
  outer loop
    vertex 1441.689772065568 199.57689312746405 2.99999999999999
    vertex 1441.689772065568 202.39736312746413 4.999999999999989
    vertex 1441.689772065568 199.57689312746405 30.99999999999999
  endloop
endfacet
facet normal 1.0 3.167848608169211e-14 0.0
  outer loop
    vertex 1441.689772065568 202.39736312746413 4.999999999999989
    vertex 1441.689772065568 199.57689312746405 2.99999999999999
    vertex 1441.6897720655677 204.3973631274641 2.99999999999999
  endloop
endfacet
facet normal 1.0 3.167848608169211e-14 0.0
  outer loop
    vertex 1441.689772065568 202.39736312746413 4.999999999999989
    vertex 1441.6897720655677 204.3973631274641 2.99999999999999
    vertex 1441.6897720655677 204.3973631274641 4.999999999999989
  endloop
endfacet
facet normal 1.0 3.167848608169211e-14 0.0
  outer loop
    vertex 1441.6897720655677 205.39736312746416 20.99999999999999
    vertex 1441.689772065568 202.887128127464 30.99999999999999
    vertex 1441.689772065568 202.39736312746413 20.99999999999999
  endloop
endfacet
facet normal 1.0 3.167848608169211e-14 0.0
  outer loop
    vertex 1441.689772065568 199.57689312746405 30.99999999999999
    vertex 1441.6897720655681 188.88712812746422 33.999999999999986
    vertex 1441.6897720655681 188.88712812746422 30.99999999999999
  endloop
endfacet
facet normal 1.0 3.167848608169211e-14 0.0
  outer loop
    vertex 1441.6897720655681 188.88712812746422 33.999999999999986
    vertex 1441.689772065568 199.57689312746405 30.99999999999999
    vertex 1441.689772065568 202.887128127464 33.999999999999986
  endloop
endfacet
facet normal 1.0 3.167848608169211e-14 0.0
  outer loop
    vertex 1441.689772065568 202.887128127464 33.999999999999986
    vertex 1441.689772065568 199.57689312746405 30.99999999999999
    vertex 1441.689772065568 202.39736312746413 20.99999999999999
  endloop
endfacet
facet normal 1.0 3.167848608169211e-14 0.0
  outer loop
    vertex 1441.689772065568 202.39736312746413 20.99999999999999
    vertex 1441.689772065568 199.57689312746405 30.99999999999999
    vertex 1441.689772065568 202.39736312746413 4.999999999999989
  endloop
endfacet
facet normal 1.0 3.167848608169211e-14 0.0
  outer loop
    vertex 1441.689772065568 202.887128127464 33.999999999999986
    vertex 1441.689772065568 202.39736312746413 20.99999999999999
    vertex 1441.689772065568 202.887128127464 30.99999999999999
  endloop
endfacet
facet normal 0.0 0.0 1.0
  outer loop
    vertex 1444.1897720658349 203.53712812746426 18.49999999999999
    vertex 1467.1897720655675 208.3768931274646 18.49999999999999
    vertex 1444.1897720658346 208.37689312746411 18.49999999999999
  endloop
endfacet
facet normal 0.0 0.0 1.0
  outer loop
    vertex 1467.1897720655675 208.3768931274646 18.49999999999999
    vertex 1444.1897720658349 203.53712812746426 18.49999999999999
    vertex 1467.1897720655677 203.5371281274647 18.49999999999999
  endloop
endfacet
facet normal 3.1800950761606847e-14 -1.0 0.0
  outer loop
    vertex 1441.6897720655681 188.88712812746422 33.999999999999986
    vertex 1426.689772065568 188.88712812746357 30.99999999999999
    vertex 1441.6897720655681 188.88712812746422 30.99999999999999
  endloop
endfacet
facet normal 3.1800950761606847e-14 -1.0 0.0
  outer loop
    vertex 1426.689772065568 188.88712812746357 30.99999999999999
    vertex 1441.6897720655681 188.88712812746422 33.999999999999986
    vertex 1426.689772065568 188.88712812746357 33.999999999999986
  endloop
endfacet
facet normal 4.627807019245068e-06 0.9115720297503724 0.4111404073493261
  outer loop
    vertex 1444.189784483661 182.6474013219298 64.00001204767356
    vertex 1454.1897725985207 178.13712534467118 73.99999034174476
    vertex 1454.1897844834107 182.64736034451673 63.99999034169093
  endloop
endfacet
facet normal 4.627807019245068e-06 0.9115720297503724 0.4111404073493261
  outer loop
    vertex 1454.1897725985207 178.13712534467118 73.99999034174476
    vertex 1444.189784483661 182.6474013219298 64.00001204767356
    vertex 1444.189772598771 178.13716632208425 74.0000120477274
  endloop
endfacet
facet normal -0.9999999994386839 3.0465865653971577e-05 -1.394501453465153e-05
  outer loop
    vertex 1456.6897720672523 179.04745452506177 68.9999581649564
    vertex 1456.6891154391042 175.14745437707145 39.00007134705971
    vertex 1456.6883875863177 175.14745426274834 69.00027591012731
  endloop
endfacet
facet normal -0.9999999994386839 3.0465865653971577e-05 -1.394501453465153e-05
  outer loop
    vertex 1456.6891154391042 175.14745437707145 39.00007134705971
    vertex 1456.6897720672523 179.04745452506177 68.9999581649564
    vertex 1456.6897720672523 179.04745452506177 60.49995816495641
  endloop
endfacet
facet normal -0.9999999994386839 3.0465865653971577e-05 -1.394501453465153e-05
  outer loop
    vertex 1456.6891154391042 175.14745437707145 39.00007134705971
    vertex 1456.6897720672523 179.04745452506177 60.49995816495641
    vertex 1456.6897720672516 186.6474545250617 38.99995816495639
  endloop
endfacet
facet normal -0.9999999994386839 3.0465865653971577e-05 -1.394501453465153e-05
  outer loop
    vertex 1456.6897720672516 186.6474545250617 38.99995816495639
    vertex 1456.6897720672523 179.04745452506177 60.49995816495641
    vertex 1456.6897720672516 186.6474545250617 60.49995816495641
  endloop
endfacet
facet normal -4.480224460197727e-08 2.1350938430455707e-09 0.9999999999999991
  outer loop
    vertex 1471.189772065588 186.64736915175516 25.500002120867208
    vertex 1467.1897720655677 198.37689312746477 25.499999999999993
    vertex 1467.1897720655677 186.64736312746476 25.5
  endloop
endfacet
facet normal -4.480224460197727e-08 2.1350938430455707e-09 0.9999999999999991
  outer loop
    vertex 1444.189772065835 198.37689312746426 25.499999999999993
    vertex 1471.189772065588 203.5371281274647 25.500002120867208
    vertex 1444.1897720658349 203.53712812746426 25.499999999999993
  endloop
endfacet
facet normal -4.480224460197727e-08 2.1350938430455707e-09 0.9999999999999991
  outer loop
    vertex 1471.189772065588 203.5371281274647 25.500002120867208
    vertex 1444.189772065835 198.37689312746426 25.499999999999993
    vertex 1467.1897720655677 198.37689312746477 25.499999999999993
  endloop
endfacet
facet normal -4.480224460197727e-08 2.1350938430455707e-09 0.9999999999999991
  outer loop
    vertex 1471.189772065588 203.5371281274647 25.500002120867208
    vertex 1467.1897720655677 198.37689312746477 25.499999999999993
    vertex 1471.189772065588 186.64736915175516 25.500002120867208
  endloop
endfacet
facet normal -3.167848608169211e-14 1.0 0.0
  outer loop
    vertex 1426.689772065566 253.62689312746346 2.99999999999999
    vertex 1471.1897720655863 253.62689915175494 2.120867200205989e-06
    vertex 1426.689772065566 253.62689312746346 -5.639932965095795e-15
  endloop
endfacet
facet normal -3.167848608169211e-14 1.0 0.0
  outer loop
    vertex 1471.1897720655863 253.62689915175494 2.120867200205989e-06
    vertex 1426.689772065566 253.62689312746346 2.99999999999999
    vertex 1467.189772065566 253.62689312746457 2.99999999999999
  endloop
endfacet
facet normal -3.167848608169211e-14 1.0 0.0
  outer loop
    vertex 1471.1897720655863 253.62689915175494 2.120867200205989e-06
    vertex 1467.189772065566 253.62689312746457 2.99999999999999
    vertex 1471.1897720655863 253.62689915175494 8.000002120867201
  endloop
endfacet
facet normal -3.167848608169211e-14 1.0 0.0
  outer loop
    vertex 1471.1897720655863 253.62689915175494 8.000002120867201
    vertex 1467.189772065566 253.62689312746457 2.99999999999999
    vertex 1467.189772065566 253.62689312746457 7.999999999999989
  endloop
endfacet
facet normal 0.0 0.0 1.0
  outer loop
    vertex 1456.6897720672523 179.04745452506177 60.49995816495641
    vertex 1464.6897720655675 186.64736312746476 60.50000000000002
    vertex 1456.6897720672516 186.6474545250617 60.49995816495641
  endloop
endfacet
facet normal 0.0 0.0 1.0
  outer loop
    vertex 1464.6897720655675 186.64736312746476 60.50000000000002
    vertex 1456.6897720672523 179.04745452506177 60.49995816495641
    vertex 1464.6897720655681 179.04736312746482 60.50000000000002
  endloop
endfacet
facet normal 1.1955155917690061e-06 -0.9999999999991775 -4.643172985660283e-07
  outer loop
    vertex 1444.1897720658349 199.5769313220839 3.0000120477259444
    vertex 1441.689772065568 199.57689312746405 2.99999999999999
    vertex 1444.1897720658349 199.5769313220839 1.2047725948449716e-05
  endloop
endfacet
facet normal 1.1955155917690061e-06 -0.9999999999991775 -4.643172985660283e-07
  outer loop
    vertex 1426.6897720655677 199.57689312746353 -5.639932965095795e-15
    vertex 1441.689772065568 199.57689312746405 2.99999999999999
    vertex 1426.6897720655677 199.57689312746353 30.99999999999999
  endloop
endfacet
facet normal 1.1955155917690061e-06 -0.9999999999991775 -4.643172985660283e-07
  outer loop
    vertex 1441.689772065568 199.57689312746405 2.99999999999999
    vertex 1426.6897720655677 199.57689312746353 -5.639932965095795e-15
    vertex 1444.1897720658349 199.5769313220839 1.2047725948449716e-05
  endloop
endfacet
facet normal 1.1955155917690061e-06 -0.9999999999991775 -4.643172985660283e-07
  outer loop
    vertex 1426.6897720655677 199.57689312746353 30.99999999999999
    vertex 1441.689772065568 199.57689312746405 2.99999999999999
    vertex 1441.689772065568 199.57689312746405 30.99999999999999
  endloop
endfacet
facet normal -3.0725232077198874e-14 0.9699084734657145 0.24346981968902698
  outer loop
    vertex 1426.6897720655677 202.8871281274635 30.99999999999999
    vertex 1441.6897720655677 205.39736312746416 20.99999999999999
    vertex 1426.6897720655675 205.39736312746356 20.99999999999999
  endloop
endfacet
facet normal -3.0725232077198874e-14 0.9699084734657145 0.24346981968902698
  outer loop
    vertex 1441.6897720655677 205.39736312746416 20.99999999999999
    vertex 1426.6897720655677 202.8871281274635 30.99999999999999
    vertex 1441.689772065568 202.887128127464 30.99999999999999
  endloop
endfacet
facet normal 0.0 0.0 -1.0
  outer loop
    vertex 1441.689772065568 199.57689312746405 30.99999999999999
    vertex 1426.689772065568 188.88712812746357 30.99999999999999
    vertex 1426.6897720655677 199.57689312746353 30.99999999999999
  endloop
endfacet
facet normal 0.0 0.0 -1.0
  outer loop
    vertex 1426.689772065568 188.88712812746357 30.99999999999999
    vertex 1441.689772065568 199.57689312746405 30.99999999999999
    vertex 1441.6897720655681 188.88712812746422 30.99999999999999
  endloop
endfacet
facet normal 0.0 0.0 1.0
  outer loop
    vertex 1426.689772065568 188.88712812746357 33.999999999999986
    vertex 1441.689772065568 202.887128127464 33.999999999999986
    vertex 1426.6897720655677 202.8871281274635 33.999999999999986
  endloop
endfacet
facet normal 0.0 0.0 1.0
  outer loop
    vertex 1441.689772065568 202.887128127464 33.999999999999986
    vertex 1426.689772065568 188.88712812746357 33.999999999999986
    vertex 1441.6897720655681 188.88712812746422 33.999999999999986
  endloop
endfacet
facet normal 0.0 0.0 -1.0
  outer loop
    vertex 1441.6897720655677 205.39736312746416 20.99999999999999
    vertex 1426.6897720655677 202.3973631274636 20.99999999999999
    vertex 1426.6897720655675 205.39736312746356 20.99999999999999
  endloop
endfacet
facet normal 0.0 0.0 -1.0
  outer loop
    vertex 1426.6897720655677 202.3973631274636 20.99999999999999
    vertex 1441.6897720655677 205.39736312746416 20.99999999999999
    vertex 1441.689772065568 202.39736312746413 20.99999999999999
  endloop
endfacet
facet normal 2.1705982631689447e-06 -1.5692914503725182e-13 0.9999999999976443
  outer loop
    vertex 1454.1897720655857 161.637125344671 76.99999034174331
    vertex 1444.189772598771 178.13716632208425 77.00001204772737
    vertex 1444.189772065836 161.6371663220841 77.00001204772595
  endloop
endfacet
facet normal 2.1705982631689447e-06 -1.5692914503725182e-13 0.9999999999976443
  outer loop
    vertex 1444.189772598771 178.13716632208425 77.00001204772737
    vertex 1454.1897720655857 161.637125344671 76.99999034174331
    vertex 1454.1897725985207 178.13712534467118 76.99999034174473
  endloop
endfacet
facet normal 0.0 0.0 1.0
  outer loop
    vertex 1471.1883875846543 175.14736888944168 69.00031986603814
    vertex 1456.6897720672523 179.04745452506177 68.9999581649564
    vertex 1456.6883875863177 175.14745426274834 69.00027591012731
  endloop
endfacet
facet normal 0.0 0.0 1.0
  outer loop
    vertex 1456.6897720672523 179.04745452506177 68.9999581649564
    vertex 1471.1883875846543 175.14736888944168 69.00031986603814
    vertex 1464.6897720655681 179.04736312746482 69.00000000000001
  endloop
endfacet
facet normal 0.0 0.0 1.0
  outer loop
    vertex 1464.6897720655681 179.04736312746482 69.00000000000001
    vertex 1471.189772065588 186.64736915175507 69.00000212086722
    vertex 1464.6897720655675 186.64736312746476 69.00000000000001
  endloop
endfacet
facet normal 0.0 0.0 1.0
  outer loop
    vertex 1471.189772065588 186.64736915175507 69.00000212086722
    vertex 1464.6897720655681 179.04736312746482 69.00000000000001
    vertex 1471.1883875846543 175.14736888944168 69.00031986603814
  endloop
endfacet
facet normal 3.53298326279758e-25 -1.114786749945936e-11 -1.0
  outer loop
    vertex 1444.189784483661 182.6474013219298 64.00001204767356
    vertex 1454.1897720655852 177.94736034467095 63.99999034174334
    vertex 1444.1897720658355 177.947401322084 64.00001204772597
  endloop
endfacet
facet normal 3.53298326279758e-25 -1.114786749945936e-11 -1.0
  outer loop
    vertex 1454.1897720655852 177.94736034467095 63.99999034174334
    vertex 1444.189784483661 182.6474013219298 64.00001204767356
    vertex 1454.1897844834107 182.64736034451673 63.99999034169093
  endloop
endfacet
facet normal 0.999999999979605 -6.024290199704225e-06 -2.12086721126366e-06
  outer loop
    vertex 1471.1883875846543 175.14736888944168 0.0003198660381084628
    vertex 1471.189772065588 186.64736915175516 25.500002120867208
    vertex 1471.1883875846543 175.14736888944168 69.00031986603814
  endloop
endfacet
facet normal 0.999999999979605 -6.024290199704225e-06 -2.12086721126366e-06
  outer loop
    vertex 1471.189772065588 186.64736915175516 25.500002120867208
    vertex 1471.1883875846543 175.14736888944168 0.0003198660381084628
    vertex 1471.1897720655863 253.62689915175494 2.120867200205989e-06
  endloop
endfacet
facet normal 0.999999999979605 -6.024290199704225e-06 -2.12086721126366e-06
  outer loop
    vertex 1471.1883875846543 175.14736888944168 69.00031986603814
    vertex 1471.189772065588 186.64736915175516 25.500002120867208
    vertex 1471.189772065588 186.64736915175507 69.00000212086722
  endloop
endfacet
facet normal 0.999999999979605 -6.024290199704225e-06 -2.12086721126366e-06
  outer loop
    vertex 1471.189772065588 186.64736915175516 25.500002120867208
    vertex 1471.1897720655863 253.62689915175494 2.120867200205989e-06
    vertex 1471.1897739213466 203.5371281274647 22.000002120868185
  endloop
endfacet
facet normal 0.999999999979605 -6.024290199704225e-06 -2.12086721126366e-06
  outer loop
    vertex 1471.1897739213466 203.5371281274647 22.000002120868185
    vertex 1471.1897720655863 253.62689915175494 2.120867200205989e-06
    vertex 1471.189773921345 253.62689915175494 22.000002120868178
  endloop
endfacet
facet normal 0.999999999979605 -6.024290199704225e-06 -2.12086721126366e-06
  outer loop
    vertex 1471.189773921345 253.62689915175494 22.000002120868178
    vertex 1471.1897720655863 253.62689915175494 2.120867200205989e-06
    vertex 1471.1897720655863 253.62689915175494 8.000002120867201
  endloop
endfacet
facet normal 0.999999999979605 -6.024290199704225e-06 -2.12086721126366e-06
  outer loop
    vertex 1471.189772065588 203.5371281274647 25.500002120867208
    vertex 1471.189772065588 186.64736915175516 25.500002120867208
    vertex 1471.1897739213466 203.5371281274647 22.000002120868185
  endloop
endfacet
facet normal 0.0004377520989823221 -0.9999999013398366 -7.545473554986307e-05
  outer loop
    vertex 1444.188387584901 175.1474010597706 0.0003297928968524766
    vertex 1454.189115437437 175.12689019668073 39.00010352384663
    vertex 1444.188387584901 175.1371956165488 74.00032979289689
  endloop
endfacet
facet normal 0.0004377520989823221 -0.9999999013398366 -7.545473554986307e-05
  outer loop
    vertex 1454.189115437437 175.12689019668073 39.00010352384663
    vertex 1444.188387584901 175.1474010597706 0.0003297928968524766
    vertex 1456.6891154391042 175.14745437707145 39.00007134705971
  endloop
endfacet
facet normal 0.0004377520989823221 -0.9999999013398366 -7.545473554986307e-05
  outer loop
    vertex 1444.188387584901 175.1371956165488 74.00032979289689
    vertex 1454.189115437437 175.12689019668073 39.00010352384663
    vertex 1454.1883875846506 175.13715463913573 74.00030808691426
  endloop
endfacet
facet normal 0.0004377520989823221 -0.9999999013398366 -7.545473554986307e-05
  outer loop
    vertex 1471.1883875846543 175.14736888944168 69.00031986603814
    vertex 1444.188387584901 175.1474010597706 0.0003297928968524766
    vertex 1471.1883875846543 175.14736888944168 0.0003198660381084628
  endloop
endfacet
facet normal 0.0004377520989823221 -0.9999999013398366 -7.545473554986307e-05
  outer loop
    vertex 1444.188387584901 175.1474010597706 0.0003297928968524766
    vertex 1471.1883875846543 175.14736888944168 69.00031986603814
    vertex 1456.6891154391042 175.14745437707145 39.00007134705971
  endloop
endfacet
facet normal 0.0004377520989823221 -0.9999999013398366 -7.545473554986307e-05
  outer loop
    vertex 1456.6891154391042 175.14745437707145 39.00007134705971
    vertex 1471.1883875846543 175.14736888944168 69.00031986603814
    vertex 1456.6883875863177 175.14745426274834 69.00027591012731
  endloop
endfacet
facet normal -3.167848608169211e-14 1.0 0.0
  outer loop
    vertex 1426.6897720655677 202.3973631274636 20.99999999999999
    vertex 1441.689772065568 202.39736312746413 4.999999999999989
    vertex 1426.689772065568 202.3973631274636 4.999999999999989
  endloop
endfacet
facet normal -3.167848608169211e-14 1.0 0.0
  outer loop
    vertex 1441.689772065568 202.39736312746413 4.999999999999989
    vertex 1426.6897720655677 202.3973631274636 20.99999999999999
    vertex 1441.689772065568 202.39736312746413 20.99999999999999
  endloop
endfacet
facet normal 3.1800950761606847e-14 -1.0 0.0
  outer loop
    vertex 1454.1897720655857 161.637125344671 76.99999034174331
    vertex 1444.189772065836 161.6371663220841 74.00001204772597
    vertex 1454.1897720655857 161.637125344671 73.99999034174334
  endloop
endfacet
facet normal 3.1800950761606847e-14 -1.0 0.0
  outer loop
    vertex 1444.189772065836 161.6371663220841 74.00001204772597
    vertex 1454.1897720655857 161.637125344671 76.99999034174331
    vertex 1444.189772065836 161.6371663220841 77.00001204772595
  endloop
endfacet
facet normal -1.0 -3.396054029227723e-14 -4.62794495988042e-15
  outer loop
    vertex 1426.6897720655677 199.57689312746353 -5.639932965095795e-15
    vertex 1426.6897720655677 204.39736312746356 2.99999999999999
    vertex 1426.689772065566 253.62689312746346 -5.639932965095795e-15
  endloop
endfacet
facet normal -1.0 -3.396054029227723e-14 -4.62794495988042e-15
  outer loop
    vertex 1426.6897720655677 204.39736312746356 2.99999999999999
    vertex 1426.6897720655677 199.57689312746353 -5.639932965095795e-15
    vertex 1426.689772065568 202.3973631274636 4.999999999999989
  endloop
endfacet
facet normal -1.0 -3.396054029227723e-14 -4.62794495988042e-15
  outer loop
    vertex 1426.689772065568 202.3973631274636 4.999999999999989
    vertex 1426.6897720655677 199.57689312746353 -5.639932965095795e-15
    vertex 1426.6897720655677 202.3973631274636 20.99999999999999
  endloop
endfacet
facet normal -1.0 -3.396054029227723e-14 -4.62794495988042e-15
  outer loop
    vertex 1426.6897720655677 204.39736312746356 2.99999999999999
    vertex 1426.689772065568 202.3973631274636 4.999999999999989
    vertex 1426.6897720655677 204.39736312746356 4.999999999999989
  endloop
endfacet
facet normal -1.0 -3.396054029227723e-14 -4.62794495988042e-15
  outer loop
    vertex 1426.689772065566 253.62689312746346 -5.639932965095795e-15
    vertex 1426.6897720655677 204.39736312746356 2.99999999999999
    vertex 1426.689772065566 253.62689312746346 2.99999999999999
  endloop
endfacet
facet normal -1.0 -3.396054029227723e-14 -4.62794495988042e-15
  outer loop
    vertex 1426.6897720655677 202.8871281274635 33.999999999999986
    vertex 1426.689772065568 188.88712812746357 30.99999999999999
    vertex 1426.689772065568 188.88712812746357 33.999999999999986
  endloop
endfacet
facet normal -1.0 -3.396054029227723e-14 -4.62794495988042e-15
  outer loop
    vertex 1426.689772065568 188.88712812746357 30.99999999999999
    vertex 1426.6897720655677 202.8871281274635 33.999999999999986
    vertex 1426.6897720655677 199.57689312746353 30.99999999999999
  endloop
endfacet
facet normal -1.0 -3.396054029227723e-14 -4.62794495988042e-15
  outer loop
    vertex 1426.6897720655677 199.57689312746353 30.99999999999999
    vertex 1426.6897720655677 202.8871281274635 33.999999999999986
    vertex 1426.6897720655677 199.57689312746353 -5.639932965095795e-15
  endloop
endfacet
facet normal -1.0 -3.396054029227723e-14 -4.62794495988042e-15
  outer loop
    vertex 1426.6897720655677 199.57689312746353 -5.639932965095795e-15
    vertex 1426.6897720655677 202.8871281274635 33.999999999999986
    vertex 1426.6897720655677 202.3973631274636 20.99999999999999
  endloop
endfacet
facet normal -1.0 -3.396054029227723e-14 -4.62794495988042e-15
  outer loop
    vertex 1426.6897720655677 202.3973631274636 20.99999999999999
    vertex 1426.6897720655677 202.8871281274635 33.999999999999986
    vertex 1426.6897720655677 202.8871281274635 30.99999999999999
  endloop
endfacet
facet normal -1.0 -3.396054029227723e-14 -4.62794495988042e-15
  outer loop
    vertex 1426.6897720655677 202.3973631274636 20.99999999999999
    vertex 1426.6897720655677 202.8871281274635 30.99999999999999
    vertex 1426.6897720655675 205.39736312746356 20.99999999999999
  endloop
endfacet
facet normal -1.3867132646220667e-16 5.872449267665411e-17 -1.0
  outer loop
    vertex 1471.1897720655863 253.62689915175494 2.120867200205989e-06
    vertex 1426.6897720655677 199.57689312746353 -5.639932965095795e-15
    vertex 1426.689772065566 253.62689312746346 -5.639932965095795e-15
  endloop
endfacet
facet normal -1.3867132646220667e-16 5.872449267665411e-17 -1.0
  outer loop
    vertex 1426.6897720655677 199.57689312746353 -5.639932965095795e-15
    vertex 1471.1897720655863 253.62689915175494 2.120867200205989e-06
    vertex 1444.1897720658349 199.5769313220839 1.2047725948449716e-05
  endloop
endfacet
facet normal -1.3867132646220667e-16 5.872449267665411e-17 -1.0
  outer loop
    vertex 1444.1897720658349 199.5769313220839 1.2047725948449716e-05
    vertex 1471.1897720655863 253.62689915175494 2.120867200205989e-06
    vertex 1471.1883875846543 175.14736888944168 0.0003198660381084628
  endloop
endfacet
facet normal -1.3867132646220667e-16 5.872449267665411e-17 -1.0
  outer loop
    vertex 1471.1883875846543 175.14736888944168 0.0003198660381084628
    vertex 1444.188387584901 175.1474010597706 0.0003297928968524766
    vertex 1444.1897720658349 199.5769313220839 1.2047725948449716e-05
  endloop
endfacet
facet normal -1.0 -3.167848608169211e-14 0.0
  outer loop
    vertex 1444.1897720658349 203.53712812746426 25.499999999999993
    vertex 1444.189772065835 198.37689312746426 2.99999999999999
    vertex 1444.189772065835 198.37689312746426 25.499999999999993
  endloop
endfacet
facet normal -1.0 -3.167848608169211e-14 0.0
  outer loop
    vertex 1444.189772065835 198.37689312746426 2.99999999999999
    vertex 1444.1897720658349 203.53712812746426 25.499999999999993
    vertex 1444.1897720658349 199.5769313220839 3.0000120477259444
  endloop
endfacet
facet normal -1.0 -3.167848608169211e-14 0.0
  outer loop
    vertex 1444.1897720658349 199.5769313220839 3.0000120477259444
    vertex 1444.1897720658349 203.53712812746426 25.499999999999993
    vertex 1444.1897720658349 203.53712812746426 18.49999999999999
  endloop
endfacet
facet normal -1.0 -3.167848608169211e-14 0.0
  outer loop
    vertex 1444.1897720658349 199.5769313220839 3.0000120477259444
    vertex 1444.1897720658349 203.53712812746426 18.49999999999999
    vertex 1444.1897720658346 208.37689312746411 2.99999999999999
  endloop
endfacet
facet normal -1.0 -3.167848608169211e-14 0.0
  outer loop
    vertex 1444.1897720658346 208.37689312746411 2.99999999999999
    vertex 1444.1897720658349 203.53712812746426 18.49999999999999
    vertex 1444.1897720658346 208.37689312746411 18.49999999999999
  endloop
endfacet
facet normal 2.775505445375379e-14 -1.0 0.0
  outer loop
    vertex 1467.1897720655677 198.37689312746477 25.499999999999993
    vertex 1444.189772065835 198.37689312746426 2.99999999999999
    vertex 1467.1897720655677 198.37689312746477 2.99999999999999
  endloop
endfacet
facet normal 2.775505445375379e-14 -1.0 0.0
  outer loop
    vertex 1444.189772065835 198.37689312746426 2.99999999999999
    vertex 1467.1897720655677 198.37689312746477 25.499999999999993
    vertex 1444.189772065835 198.37689312746426 25.499999999999993
  endloop
endfacet
facet normal -3.167848608169211e-14 1.0 0.0
  outer loop
    vertex 1426.6897720655677 202.8871281274635 33.999999999999986
    vertex 1441.689772065568 202.887128127464 30.99999999999999
    vertex 1426.6897720655677 202.8871281274635 30.99999999999999
  endloop
endfacet
facet normal -3.167848608169211e-14 1.0 0.0
  outer loop
    vertex 1441.689772065568 202.887128127464 30.99999999999999
    vertex 1426.6897720655677 202.8871281274635 33.999999999999986
    vertex 1441.689772065568 202.887128127464 33.999999999999986
  endloop
endfacet
facet normal 4.0977413118969225e-06 0.9999999999916043 -2.4389449510614836e-22
  outer loop
    vertex 1444.189772598771 178.13716632208425 74.0000120477274
    vertex 1454.1897725985207 178.13712534467118 76.99999034174473
    vertex 1454.1897725985207 178.13712534467118 73.99999034174476
  endloop
endfacet
facet normal 4.0977413118969225e-06 0.9999999999916043 -2.4389449510614836e-22
  outer loop
    vertex 1454.1897725985207 178.13712534467118 76.99999034174473
    vertex 1444.189772598771 178.13716632208425 74.0000120477274
    vertex 1444.189772598771 178.13716632208425 77.00001204772737
  endloop
endfacet
facet normal -3.1800950761606847e-14 1.0 0.0
  outer loop
    vertex 1444.1897731511342 177.9473890288492 41.0000049932813
    vertex 1454.1897720655852 177.94736034467095 63.99999034174334
    vertex 1454.1897720655845 177.94737263788394 40.99999739618796
  endloop
endfacet
facet normal -3.1800950761606847e-14 1.0 0.0
  outer loop
    vertex 1454.1897720655852 177.94736034467095 63.99999034174334
    vertex 1444.1897731511342 177.9473890288492 41.0000049932813
    vertex 1444.1897720658355 177.947401322084 64.00001204772597
  endloop
endfacet
facet normal 0.0 0.0 -1.0
  outer loop
    vertex 1454.1883875846506 175.13715463913573 74.00030808691426
    vertex 1444.189772065836 161.6371663220841 74.00001204772597
    vertex 1444.188387584901 175.1371956165488 74.00032979289689
  endloop
endfacet
facet normal 0.0 0.0 -1.0
  outer loop
    vertex 1444.189772065836 161.6371663220841 74.00001204772597
    vertex 1454.1883875846506 175.13715463913573 74.00030808691426
    vertex 1454.1897720655857 161.637125344671 73.99999034174334
  endloop
endfacet
facet normal -3.393352622741574e-14 1.0 1.6485122361967444e-15
  outer loop
    vertex 1444.1897720658349 186.64740132208408 3.00001204772595
    vertex 1467.1897720655677 186.64736312746476 25.5
    vertex 1467.1897720655677 186.64736312746476 2.9999999999999947
  endloop
endfacet
facet normal -3.393352622741574e-14 1.0 1.6485122361967444e-15
  outer loop
    vertex 1467.1897720655677 186.64736312746476 25.5
    vertex 1444.1897720658349 186.64740132208408 3.00001204772595
    vertex 1444.1897720658346 186.64740132208402 39.00001204772595
  endloop
endfacet
facet normal -3.393352622741574e-14 1.0 1.6485122361967444e-15
  outer loop
    vertex 1467.1897720655677 186.64736312746476 25.5
    vertex 1444.1897720658346 186.64740132208402 39.00001204772595
    vertex 1471.189772065588 186.64736915175516 25.500002120867208
  endloop
endfacet
facet normal -3.393352622741574e-14 1.0 1.6485122361967444e-15
  outer loop
    vertex 1471.189772065588 186.64736915175516 25.500002120867208
    vertex 1444.1897720658346 186.64740132208402 39.00001204772595
    vertex 1456.6897720672516 186.6474545250617 38.99995816495639
  endloop
endfacet
facet normal -3.393352622741574e-14 1.0 1.6485122361967444e-15
  outer loop
    vertex 1456.6897720672516 186.6474545250617 38.99995816495639
    vertex 1471.189772065588 186.64736915175507 69.00000212086722
    vertex 1471.189772065588 186.64736915175516 25.500002120867208
  endloop
endfacet
facet normal -3.393352622741574e-14 1.0 1.6485122361967444e-15
  outer loop
    vertex 1471.189772065588 186.64736915175507 69.00000212086722
    vertex 1456.6897720672516 186.6474545250617 38.99995816495639
    vertex 1464.6897720655675 186.64736312746476 60.50000000000002
  endloop
endfacet
facet normal -3.393352622741574e-14 1.0 1.6485122361967444e-15
  outer loop
    vertex 1464.6897720655675 186.64736312746476 60.50000000000002
    vertex 1456.6897720672516 186.6474545250617 38.99995816495639
    vertex 1456.6897720672516 186.6474545250617 60.49995816495641
  endloop
endfacet
facet normal -3.393352622741574e-14 1.0 1.6485122361967444e-15
  outer loop
    vertex 1471.189772065588 186.64736915175507 69.00000212086722
    vertex 1464.6897720655675 186.64736312746476 60.50000000000002
    vertex 1464.6897720655675 186.64736312746476 69.00000000000001
  endloop
endfacet
facet normal -1.0 -3.1800950761606847e-14 0.0
  outer loop
    vertex 1464.6897720655675 186.64736312746476 69.00000000000001
    vertex 1464.6897720655681 179.04736312746482 60.50000000000002
    vertex 1464.6897720655681 179.04736312746482 69.00000000000001
  endloop
endfacet
facet normal -1.0 -3.1800950761606847e-14 0.0
  outer loop
    vertex 1464.6897720655681 179.04736312746482 60.50000000000002
    vertex 1464.6897720655675 186.64736312746476 69.00000000000001
    vertex 1464.6897720655675 186.64736312746476 60.50000000000002
  endloop
endfacet
facet normal -3.1800950761606847e-14 1.0 0.0
  outer loop
    vertex 1456.6897720672523 179.04745452506177 68.9999581649564
    vertex 1464.6897720655681 179.04736312746482 60.50000000000002
    vertex 1456.6897720672523 179.04745452506177 60.49995816495641
  endloop
endfacet
facet normal -3.1800950761606847e-14 1.0 0.0
  outer loop
    vertex 1464.6897720655681 179.04736312746482 60.50000000000002
    vertex 1456.6897720672523 179.04745452506177 68.9999581649564
    vertex 1464.6897720655681 179.04736312746482 69.00000000000001
  endloop
endfacet
facet normal -3.167848608169211e-14 1.0 0.0
  outer loop
    vertex 1467.1897720655668 253.62689312746457 21.99999999999999
    vertex 1471.1897720655863 253.62689915175494 8.000002120867201
    vertex 1467.189772065566 253.62689312746457 7.999999999999989
  endloop
endfacet
facet normal -3.167848608169211e-14 1.0 0.0
  outer loop
    vertex 1471.1897720655863 253.62689915175494 8.000002120867201
    vertex 1467.1897720655668 253.62689312746457 21.99999999999999
    vertex 1471.189773921345 253.62689915175494 22.000002120868178
  endloop
endfacet
facet normal -1.0 -3.167848608169211e-14 0.0
  outer loop
    vertex 1467.1897720655677 198.37689312746477 25.499999999999993
    vertex 1467.1897720655677 186.64736312746476 2.9999999999999947
    vertex 1467.1897720655677 186.64736312746476 25.5
  endloop
endfacet
facet normal -1.0 -3.167848608169211e-14 0.0
  outer loop
    vertex 1467.1897720655677 186.64736312746476 2.9999999999999947
    vertex 1467.1897720655677 198.37689312746477 25.499999999999993
    vertex 1467.1897720655677 198.37689312746477 2.99999999999999
  endloop
endfacet
facet normal 2.6190751241335316e-07 5.135638838599613e-07 0.9999999999998339
  outer loop
    vertex 1467.1897720655677 186.64736312746476 2.9999999999999947
    vertex 1444.189772065835 198.37689312746426 2.99999999999999
    vertex 1444.1897720658349 186.64740132208408 3.00001204772595
  endloop
endfacet
facet normal 2.6190751241335316e-07 5.135638838599613e-07 0.9999999999998339
  outer loop
    vertex 1444.189772065835 198.37689312746426 2.99999999999999
    vertex 1467.1897720655677 186.64736312746476 2.9999999999999947
    vertex 1467.1897720655677 198.37689312746477 2.99999999999999
  endloop
endfacet
facet normal 0.0 0.0 1.0
  outer loop
    vertex 1426.689772065568 202.3973631274636 4.999999999999989
    vertex 1441.6897720655677 204.3973631274641 4.999999999999989
    vertex 1426.6897720655677 204.39736312746356 4.999999999999989
  endloop
endfacet
facet normal 0.0 0.0 1.0
  outer loop
    vertex 1441.6897720655677 204.3973631274641 4.999999999999989
    vertex 1426.689772065568 202.3973631274636 4.999999999999989
    vertex 1441.689772065568 202.39736312746413 4.999999999999989
  endloop
endfacet
facet normal -3.167848608169211e-14 1.0 0.0
  outer loop
    vertex 1426.6897720655677 204.39736312746356 4.999999999999989
    vertex 1441.6897720655677 204.3973631274641 2.99999999999999
    vertex 1426.6897720655677 204.39736312746356 2.99999999999999
  endloop
endfacet
facet normal -3.167848608169211e-14 1.0 0.0
  outer loop
    vertex 1441.6897720655677 204.3973631274641 2.99999999999999
    vertex 1426.6897720655677 204.39736312746356 4.999999999999989
    vertex 1441.6897720655677 204.3973631274641 4.999999999999989
  endloop
endfacet
facet normal 1.3697727544547991e-06 8.257090135368657e-06 0.9999999999649722
  outer loop
    vertex 1456.6891154391042 175.14745437707145 39.00007134705971
    vertex 1454.1897709802902 179.94738083337253 38.999999566786514
    vertex 1454.189115437437 175.12689019668073 39.00010352384663
  endloop
endfacet
facet normal 1.3697727544547991e-06 8.257090135368657e-06 0.9999999999649722
  outer loop
    vertex 1454.1897709802902 179.94738083337253 38.999999566786514
    vertex 1444.1897720658346 186.64740132208402 39.00001204772595
    vertex 1444.1897720658303 179.9473808333724 39.000002822683335
  endloop
endfacet
facet normal 1.3697727544547991e-06 8.257090135368657e-06 0.9999999999649722
  outer loop
    vertex 1444.1897720658346 186.64740132208402 39.00001204772595
    vertex 1454.1897709802902 179.94738083337253 38.999999566786514
    vertex 1456.6897720672516 186.6474545250617 38.99995816495639
  endloop
endfacet
facet normal 1.3697727544547991e-06 8.257090135368657e-06 0.9999999999649722
  outer loop
    vertex 1456.6897720672516 186.6474545250617 38.99995816495639
    vertex 1454.1897709802902 179.94738083337253 38.999999566786514
    vertex 1456.6891154391042 175.14745437707145 39.00007134705971
  endloop
endfacet
facet normal 5.426495652099243e-07 -2.964850063925286e-12 0.9999999999998528
  outer loop
    vertex 1444.1897731511342 177.9473890288492 41.0000049932813
    vertex 1454.189772065589 179.94738083336662 40.999999566786215
    vertex 1444.1897731511294 179.94738083336648 41.00000282268304
  endloop
endfacet
facet normal 5.426495652099243e-07 -2.964850063925286e-12 0.9999999999998528
  outer loop
    vertex 1454.189772065589 179.94738083336662 40.999999566786215
    vertex 1444.1897731511342 177.9473890288492 41.0000049932813
    vertex 1454.1897720655845 177.94737263788394 40.99999739618796
  endloop
endfacet
facet normal 0.9999999999974041 1.209147893408677e-06 1.9312850269590295e-06
  outer loop
    vertex 1454.189115437437 175.12689019668073 39.00010352384663
    vertex 1454.1897720655845 177.94737263788394 40.99999739618796
    vertex 1454.1883875846506 175.13715463913573 74.00030808691426
  endloop
endfacet
facet normal 0.9999999999974041 1.209147893408677e-06 1.9312850269590295e-06
  outer loop
    vertex 1454.1897720655845 177.94737263788394 40.99999739618796
    vertex 1454.189115437437 175.12689019668073 39.00010352384663
    vertex 1454.1897709802902 179.94738083337253 38.999999566786514
  endloop
endfacet
facet normal 0.9999999999974041 1.209147893408677e-06 1.9312850269590295e-06
  outer loop
    vertex 1454.1883875846506 175.13715463913573 74.00030808691426
    vertex 1454.1897720655845 177.94737263788394 40.99999739618796
    vertex 1454.1897720655852 177.94736034467095 63.99999034174334
  endloop
endfacet
facet normal 0.9999999999974041 1.209147893408677e-06 1.9312850269590295e-06
  outer loop
    vertex 1454.1897720655845 177.94737263788394 40.99999739618796
    vertex 1454.1897709802902 179.94738083337253 38.999999566786514
    vertex 1454.189772065589 179.94738083336662 40.999999566786215
  endloop
endfacet
facet normal 0.9999999999974041 1.209147893408677e-06 1.9312850269590295e-06
  outer loop
    vertex 1454.1897844834107 182.64736034451673 63.99999034169093
    vertex 1454.1897725985207 178.13712534467118 73.99999034174476
    vertex 1454.1897720655852 177.94736034467095 63.99999034174334
  endloop
endfacet
facet normal 0.9999999999974041 1.209147893408677e-06 1.9312850269590295e-06
  outer loop
    vertex 1454.1883875846506 175.13715463913573 74.00030808691426
    vertex 1454.1897720655857 161.637125344671 76.99999034174331
    vertex 1454.1897720655857 161.637125344671 73.99999034174334
  endloop
endfacet
facet normal 0.9999999999974041 1.209147893408677e-06 1.9312850269590295e-06
  outer loop
    vertex 1454.1897720655857 161.637125344671 76.99999034174331
    vertex 1454.1883875846506 175.13715463913573 74.00030808691426
    vertex 1454.1897725985207 178.13712534467118 76.99999034174473
  endloop
endfacet
facet normal 0.9999999999974041 1.209147893408677e-06 1.9312850269590295e-06
  outer loop
    vertex 1454.1897725985207 178.13712534467118 76.99999034174473
    vertex 1454.1883875846506 175.13715463913573 74.00030808691426
    vertex 1454.1897720655852 177.94736034467095 63.99999034174334
  endloop
endfacet
facet normal 0.9999999999974041 1.209147893408677e-06 1.9312850269590295e-06
  outer loop
    vertex 1454.1897725985207 178.13712534467118 76.99999034174473
    vertex 1454.1897720655852 177.94736034467095 63.99999034174334
    vertex 1454.1897725985207 178.13712534467118 73.99999034174476
  endloop
endfacet
facet normal -9.117789548972061e-15 1.0 2.955324861468084e-12
  outer loop
    vertex 1444.1897720658303 179.9473808333724 39.000002822683335
    vertex 1454.189772065589 179.94738083336662 40.999999566786215
    vertex 1454.1897709802902 179.94738083337253 38.999999566786514
  endloop
endfacet
facet normal -9.117789548972061e-15 1.0 2.955324861468084e-12
  outer loop
    vertex 1454.189772065589 179.94738083336662 40.999999566786215
    vertex 1444.1897720658303 179.9473808333724 39.000002822683335
    vertex 1444.1897731511294 179.94738083336648 41.00000282268304
  endloop
endfacet
facet normal -0.9999999997049018 2.3220273262682462e-05 7.14250571298078e-06
  outer loop
    vertex 1444.189772598771 178.13716632208425 77.00001204772737
    vertex 1444.189772065836 161.6371663220841 74.00001204772597
    vertex 1444.189772065836 161.6371663220841 77.00001204772595
  endloop
endfacet
facet normal -0.9999999997049018 2.3220273262682462e-05 7.14250571298078e-06
  outer loop
    vertex 1444.189772065836 161.6371663220841 74.00001204772597
    vertex 1444.189772598771 178.13716632208425 77.00001204772737
    vertex 1444.188387584901 175.1371956165488 74.00032979289689
  endloop
endfacet
facet normal -0.9999999997049018 2.3220273262682462e-05 7.14250571298078e-06
  outer loop
    vertex 1444.188387584901 175.1371956165488 74.00032979289689
    vertex 1444.189772598771 178.13716632208425 77.00001204772737
    vertex 1444.188387584901 175.1474010597706 0.0003297928968524766
  endloop
endfacet
facet normal -0.9999999997049018 2.3220273262682462e-05 7.14250571298078e-06
  outer loop
    vertex 1444.188387584901 175.1474010597706 0.0003297928968524766
    vertex 1444.189772598771 178.13716632208425 77.00001204772737
    vertex 1444.1897720658355 177.947401322084 64.00001204772597
  endloop
endfacet
facet normal -0.9999999997049018 2.3220273262682462e-05 7.14250571298078e-06
  outer loop
    vertex 1444.188387584901 175.1474010597706 0.0003297928968524766
    vertex 1444.1897720658355 177.947401322084 64.00001204772597
    vertex 1444.1897731511342 177.9473890288492 41.0000049932813
  endloop
endfacet
facet normal -0.9999999997049018 2.3220273262682462e-05 7.14250571298078e-06
  outer loop
    vertex 1444.1897720658355 177.947401322084 64.00001204772597
    vertex 1444.189772598771 178.13716632208425 77.00001204772737
    vertex 1444.189772598771 178.13716632208425 74.0000120477274
  endloop
endfacet
facet normal -0.9999999997049018 2.3220273262682462e-05 7.14250571298078e-06
  outer loop
    vertex 1444.1897720658355 177.947401322084 64.00001204772597
    vertex 1444.189772598771 178.13716632208425 74.0000120477274
    vertex 1444.189784483661 182.6474013219298 64.00001204767356
  endloop
endfacet
facet normal -0.9999999997049018 2.3220273262682462e-05 7.14250571298078e-06
  outer loop
    vertex 1444.188387584901 175.1474010597706 0.0003297928968524766
    vertex 1444.1897720658349 186.64740132208408 3.00001204772595
    vertex 1444.1897720658349 199.5769313220839 1.2047725948449716e-05
  endloop
endfacet
facet normal -0.9999999997049018 2.3220273262682462e-05 7.14250571298078e-06
  outer loop
    vertex 1444.1897720658349 186.64740132208408 3.00001204772595
    vertex 1444.188387584901 175.1474010597706 0.0003297928968524766
    vertex 1444.1897731511342 177.9473890288492 41.0000049932813
  endloop
endfacet
facet normal -0.9999999997049018 2.3220273262682462e-05 7.14250571298078e-06
  outer loop
    vertex 1444.1897720658349 186.64740132208408 3.00001204772595
    vertex 1444.1897731511342 177.9473890288492 41.0000049932813
    vertex 1444.1897720658303 179.9473808333724 39.000002822683335
  endloop
endfacet
facet normal -0.9999999997049018 2.3220273262682462e-05 7.14250571298078e-06
  outer loop
    vertex 1444.1897720658303 179.9473808333724 39.000002822683335
    vertex 1444.1897731511342 177.9473890288492 41.0000049932813
    vertex 1444.1897731511294 179.94738083336648 41.00000282268304
  endloop
endfacet
facet normal -0.9999999997049018 2.3220273262682462e-05 7.14250571298078e-06
  outer loop
    vertex 1444.1897720658349 186.64740132208408 3.00001204772595
    vertex 1444.1897720658303 179.9473808333724 39.000002822683335
    vertex 1444.1897720658346 186.64740132208402 39.00001204772595
  endloop
endfacet
facet normal -0.9999999997049018 2.3220273262682462e-05 7.14250571298078e-06
  outer loop
    vertex 1444.1897720658349 199.5769313220839 1.2047725948449716e-05
    vertex 1444.1897720658349 186.64740132208408 3.00001204772595
    vertex 1444.189772065835 198.37689312746426 2.99999999999999
  endloop
endfacet
facet normal -0.9999999997049018 2.3220273262682462e-05 7.14250571298078e-06
  outer loop
    vertex 1444.1897720658349 199.5769313220839 1.2047725948449716e-05
    vertex 1444.189772065835 198.37689312746426 2.99999999999999
    vertex 1444.1897720658349 199.5769313220839 3.0000120477259444
  endloop
endfacet
facet normal -4.440464015144676e-09 5.464316216960513e-08 0.9999999999999984
  outer loop
    vertex 1444.1897720658349 199.5769313220839 3.0000120477259444
    vertex 1444.1897720658346 208.37689312746411 2.99999999999999
    vertex 1441.689772065568 199.57689312746405 2.99999999999999
  endloop
endfacet
facet normal -4.440464015144676e-09 5.464316216960513e-08 0.9999999999999984
  outer loop
    vertex 1426.6897720655677 204.39736312746356 2.99999999999999
    vertex 1467.189772065566 253.62689312746457 2.99999999999999
    vertex 1426.689772065566 253.62689312746346 2.99999999999999
  endloop
endfacet
facet normal -4.440464015144676e-09 5.464316216960513e-08 0.9999999999999984
  outer loop
    vertex 1467.189772065566 253.62689312746457 2.99999999999999
    vertex 1426.6897720655677 204.39736312746356 2.99999999999999
    vertex 1441.6897720655677 204.3973631274641 2.99999999999999
  endloop
endfacet
facet normal -4.440464015144676e-09 5.464316216960513e-08 0.9999999999999984
  outer loop
    vertex 1467.189772065566 253.62689312746457 2.99999999999999
    vertex 1441.6897720655677 204.3973631274641 2.99999999999999
    vertex 1444.1897720658346 208.37689312746411 2.99999999999999
  endloop
endfacet
facet normal -4.440464015144676e-09 5.464316216960513e-08 0.9999999999999984
  outer loop
    vertex 1444.1897720658346 208.37689312746411 2.99999999999999
    vertex 1441.6897720655677 204.3973631274641 2.99999999999999
    vertex 1441.689772065568 199.57689312746405 2.99999999999999
  endloop
endfacet
facet normal -4.440464015144676e-09 5.464316216960513e-08 0.9999999999999984
  outer loop
    vertex 1467.189772065566 253.62689312746457 2.99999999999999
    vertex 1444.1897720658346 208.37689312746411 2.99999999999999
    vertex 1467.1897720655675 208.3768931274646 2.99999999999999
  endloop
endfacet
facet normal -1.0 -2.4063010653521585e-14 2.29404357256679e-14
  outer loop
    vertex 1467.1897720655668 253.62689312746457 21.99999999999999
    vertex 1467.1897720655677 203.5371281274647 18.49999999999999
    vertex 1467.1897720655677 203.5371281274647 21.99999999999999
  endloop
endfacet
facet normal -1.0 -2.4063010653521585e-14 2.29404357256679e-14
  outer loop
    vertex 1467.1897720655677 203.5371281274647 18.49999999999999
    vertex 1467.1897720655668 253.62689312746457 21.99999999999999
    vertex 1467.1897720655675 208.3768931274646 18.49999999999999
  endloop
endfacet
facet normal -1.0 -2.4063010653521585e-14 2.29404357256679e-14
  outer loop
    vertex 1467.1897720655675 208.3768931274646 18.49999999999999
    vertex 1467.1897720655668 253.62689312746457 21.99999999999999
    vertex 1467.1897720655675 208.3768931274646 2.99999999999999
  endloop
endfacet
facet normal -1.0 -2.4063010653521585e-14 2.29404357256679e-14
  outer loop
    vertex 1467.1897720655675 208.3768931274646 2.99999999999999
    vertex 1467.1897720655668 253.62689312746457 21.99999999999999
    vertex 1467.189772065566 253.62689312746457 2.99999999999999
  endloop
endfacet
facet normal -1.0 -2.4063010653521585e-14 2.29404357256679e-14
  outer loop
    vertex 1467.189772065566 253.62689312746457 2.99999999999999
    vertex 1467.1897720655668 253.62689312746457 21.99999999999999
    vertex 1467.189772065566 253.62689312746457 7.999999999999989
  endloop
endfacet
facet normal -5.302168018647159e-07 5.611674397583523e-17 0.9999999999998594
  outer loop
    vertex 1467.1897720655677 203.5371281274647 21.99999999999999
    vertex 1471.189773921345 253.62689915175494 22.000002120868178
    vertex 1467.1897720655668 253.62689312746457 21.99999999999999
  endloop
endfacet
facet normal -5.302168018647159e-07 5.611674397583523e-17 0.9999999999998594
  outer loop
    vertex 1471.189773921345 253.62689915175494 22.000002120868178
    vertex 1467.1897720655677 203.5371281274647 21.99999999999999
    vertex 1471.1897739213466 203.5371281274647 22.000002120868185
  endloop
endfacet
facet normal -2.0988964875568452e-14 1.0 3.6881063075425e-15
  outer loop
    vertex 1444.1897720658349 203.53712812746426 25.499999999999993
    vertex 1467.1897720655677 203.5371281274647 18.49999999999999
    vertex 1444.1897720658349 203.53712812746426 18.49999999999999
  endloop
endfacet
facet normal -2.0988964875568452e-14 1.0 3.6881063075425e-15
  outer loop
    vertex 1467.1897720655677 203.5371281274647 18.49999999999999
    vertex 1444.1897720658349 203.53712812746426 25.499999999999993
    vertex 1467.1897720655677 203.5371281274647 21.99999999999999
  endloop
endfacet
facet normal -2.0988964875568452e-14 1.0 3.6881063075425e-15
  outer loop
    vertex 1467.1897720655677 203.5371281274647 21.99999999999999
    vertex 1444.1897720658349 203.53712812746426 25.499999999999993
    vertex 1471.1897739213466 203.5371281274647 22.000002120868185
  endloop
endfacet
facet normal -2.0988964875568452e-14 1.0 3.6881063075425e-15
  outer loop
    vertex 1471.1897739213466 203.5371281274647 22.000002120868185
    vertex 1444.1897720658349 203.53712812746426 25.499999999999993
    vertex 1471.189772065588 203.5371281274647 25.500002120867208
  endloop
endfacet
facet normal -4.9469810051310264e-14 -1.0 0.0
  outer loop
    vertex 1444.1897720658355 298.87689312746244 2.99999999999999
    vertex 1467.1897720655681 298.8768931274615 2.99999999999999
    vertex 1444.1897720658355 298.87689312746244 18.49999999999999
  endloop
endfacet
facet normal -4.9469810051310264e-14 -1.0 0.0
  outer loop
    vertex 1467.1897720655681 298.8768931274615 18.49999999999999
    vertex 1444.1897720658355 298.87689312746244 18.49999999999999
    vertex 1467.1897720655681 298.8768931274615 2.99999999999999
  endloop
endfacet
facet normal 1.0 -4.9469810051310264e-14 0.0
  outer loop
    vertex 1441.6897720655688 307.67689312746256 30.99999999999999
    vertex 1441.6897720655688 304.85642312746245 4.999999999999989
    vertex 1441.6897720655688 307.67689312746256 2.99999999999999
  endloop
endfacet
facet normal 1.0 -4.9469810051310264e-14 0.0
  outer loop
    vertex 1441.6897720655686 302.85642312746245 2.99999999999999
    vertex 1441.6897720655688 307.67689312746256 2.99999999999999
    vertex 1441.6897720655688 304.85642312746245 4.999999999999989
  endloop
endfacet
facet normal 1.0 -4.9469810051310264e-14 0.0
  outer loop
    vertex 1441.6897720655686 302.85642312746245 4.999999999999989
    vertex 1441.6897720655686 302.85642312746245 2.99999999999999
    vertex 1441.6897720655688 304.85642312746245 4.999999999999989
  endloop
endfacet
facet normal 1.0 -4.9469810051310264e-14 0.0
  outer loop
    vertex 1441.6897720655688 304.85642312746245 20.99999999999999
    vertex 1441.6897720655688 304.3666581274626 30.99999999999999
    vertex 1441.6897720655686 301.85642312746245 20.99999999999999
  endloop
endfacet
facet normal 1.0 -4.9469810051310264e-14 0.0
  outer loop
    vertex 1441.6897720655693 318.36665812746236 30.99999999999999
    vertex 1441.6897720655693 318.36665812746236 33.999999999999986
    vertex 1441.6897720655688 307.67689312746256 30.99999999999999
  endloop
endfacet
facet normal 1.0 -4.9469810051310264e-14 0.0
  outer loop
    vertex 1441.6897720655688 304.3666581274626 33.999999999999986
    vertex 1441.6897720655688 307.67689312746256 30.99999999999999
    vertex 1441.6897720655693 318.36665812746236 33.999999999999986
  endloop
endfacet
facet normal 1.0 -4.9469810051310264e-14 0.0
  outer loop
    vertex 1441.6897720655688 304.85642312746245 20.99999999999999
    vertex 1441.6897720655688 307.67689312746256 30.99999999999999
    vertex 1441.6897720655688 304.3666581274626 33.999999999999986
  endloop
endfacet
facet normal 1.0 -4.9469810051310264e-14 0.0
  outer loop
    vertex 1441.6897720655688 304.85642312746245 4.999999999999989
    vertex 1441.6897720655688 307.67689312746256 30.99999999999999
    vertex 1441.6897720655688 304.85642312746245 20.99999999999999
  endloop
endfacet
facet normal 1.0 -4.9469810051310264e-14 0.0
  outer loop
    vertex 1441.6897720655688 304.3666581274626 30.99999999999999
    vertex 1441.6897720655688 304.85642312746245 20.99999999999999
    vertex 1441.6897720655688 304.3666581274626 33.999999999999986
  endloop
endfacet
facet normal 0.0 0.0 1.0
  outer loop
    vertex 1444.1897720658355 298.87689312746244 18.49999999999999
    vertex 1467.1897720655681 298.8768931274615 18.49999999999999
    vertex 1444.1897720658358 303.71665812746227 18.49999999999999
  endloop
endfacet
facet normal 0.0 0.0 1.0
  outer loop
    vertex 1467.1897720655686 303.7166581274614 18.49999999999999
    vertex 1444.1897720658358 303.71665812746227 18.49999999999999
    vertex 1467.1897720655681 298.8768931274615 18.49999999999999
  endloop
endfacet
facet normal 4.9592274731225e-14 1.0 0.0
  outer loop
    vertex 1441.6897720655693 318.36665812746236 30.99999999999999
    vertex 1426.689772065569 318.36665812746327 30.99999999999999
    vertex 1441.6897720655693 318.36665812746236 33.999999999999986
  endloop
endfacet
facet normal 4.9592274731225e-14 1.0 0.0
  outer loop
    vertex 1426.689772065569 318.36665812746327 33.999999999999986
    vertex 1441.6897720655693 318.36665812746236 33.999999999999986
    vertex 1426.689772065569 318.36665812746327 30.99999999999999
  endloop
endfacet
facet normal 4.627807003026995e-06 -0.9115720297503724 0.4111404073493261
  outer loop
    vertex 1454.189784483412 324.6064259104096 63.99999034169093
    vertex 1454.189772598522 329.1166609102552 73.99999034174476
    vertex 1444.1897844836622 324.6063849329967 64.00001204767356
  endloop
endfacet
facet normal 4.627807003026995e-06 -0.9115720297503724 0.4111404073493261
  outer loop
    vertex 1444.1897725987724 329.1166199328423 74.0000120477274
    vertex 1444.1897844836622 324.6063849329967 64.00001204767356
    vertex 1454.189772598522 329.1166609102552 73.99999034174476
  endloop
endfacet
facet normal -0.9999999994386839 -3.0465865636180253e-05 -1.394501453465153e-05
  outer loop
    vertex 1456.688387586319 332.10633199217796 69.00027591012731
    vertex 1456.6891154391055 332.10633187785487 39.00007134705971
    vertex 1456.6897720672534 328.20633172986453 68.9999581649564
  endloop
endfacet
facet normal -0.9999999994386839 -3.0465865636180253e-05 -1.394501453465153e-05
  outer loop
    vertex 1456.6897720672534 328.20633172986453 60.49995816495641
    vertex 1456.6897720672534 328.20633172986453 68.9999581649564
    vertex 1456.6891154391055 332.10633187785487 39.00007134705971
  endloop
endfacet
facet normal -0.9999999994386839 -3.0465865636180253e-05 -1.394501453465153e-05
  outer loop
    vertex 1456.6897720672528 320.6063317298646 38.99995816495639
    vertex 1456.6897720672534 328.20633172986453 60.49995816495641
    vertex 1456.6891154391055 332.10633187785487 39.00007134705971
  endloop
endfacet
facet normal -0.9999999994386839 -3.0465865636180253e-05 -1.394501453465153e-05
  outer loop
    vertex 1456.6897720672528 320.6063317298646 60.49995816495641
    vertex 1456.6897720672534 328.20633172986453 60.49995816495641
    vertex 1456.6897720672528 320.6063317298646 38.99995816495639
  endloop
endfacet
facet normal -4.480224460197731e-08 -2.1350938430447737e-09 0.9999999999999991
  outer loop
    vertex 1467.1897720655688 320.60642312746137 25.5
    vertex 1467.1897720655686 308.87689312746136 25.499999999999993
    vertex 1471.1897720655893 320.6064171031709 25.500002120867208
  endloop
endfacet
facet normal -4.480224460197731e-08 -2.1350938430447737e-09 0.9999999999999991
  outer loop
    vertex 1444.1897720658358 303.71665812746227 25.499999999999993
    vertex 1471.1897720655888 303.7166581274613 25.500002120867208
    vertex 1444.189772065836 308.87689312746227 25.499999999999993
  endloop
endfacet
facet normal -4.480224460197731e-08 -2.1350938430447737e-09 0.9999999999999991
  outer loop
    vertex 1467.1897720655686 308.87689312746136 25.499999999999993
    vertex 1444.189772065836 308.87689312746227 25.499999999999993
    vertex 1471.1897720655888 303.7166581274613 25.500002120867208
  endloop
endfacet
facet normal -4.480224460197731e-08 -2.1350938430447737e-09 0.9999999999999991
  outer loop
    vertex 1471.1897720655893 320.6064171031709 25.500002120867208
    vertex 1467.1897720655686 308.87689312746136 25.499999999999993
    vertex 1471.1897720655888 303.7166581274613 25.500002120867208
  endloop
endfacet
facet normal -4.9469810051310264e-14 -1.0 0.0
  outer loop
    vertex 1426.689772065566 253.62689312746338 -5.639932965095795e-15
    vertex 1471.1897720655863 253.6268871031711 2.120867200205989e-06
    vertex 1426.689772065566 253.62689312746338 2.99999999999999
  endloop
endfacet
facet normal -4.9469810051310264e-14 -1.0 0.0
  outer loop
    vertex 1467.189772065566 253.62689312746159 2.99999999999999
    vertex 1426.689772065566 253.62689312746338 2.99999999999999
    vertex 1471.1897720655863 253.6268871031711 2.120867200205989e-06
  endloop
endfacet
facet normal -4.9469810051310264e-14 -1.0 0.0
  outer loop
    vertex 1471.1897720655863 253.6268871031711 8.000002120867201
    vertex 1467.189772065566 253.62689312746159 2.99999999999999
    vertex 1471.1897720655863 253.6268871031711 2.120867200205989e-06
  endloop
endfacet
facet normal -4.9469810051310264e-14 -1.0 0.0
  outer loop
    vertex 1467.189772065566 253.62689312746159 7.999999999999989
    vertex 1467.189772065566 253.62689312746159 2.99999999999999
    vertex 1471.1897720655863 253.6268871031711 8.000002120867201
  endloop
endfacet
facet normal 0.0 0.0 1.0
  outer loop
    vertex 1456.6897720672528 320.6063317298646 60.49995816495641
    vertex 1464.6897720655688 320.6064231274614 60.50000000000002
    vertex 1456.6897720672534 328.20633172986453 60.49995816495641
  endloop
endfacet
facet normal 0.0 0.0 1.0
  outer loop
    vertex 1464.6897720655695 328.20642312746133 60.50000000000002
    vertex 1456.6897720672534 328.20633172986453 60.49995816495641
    vertex 1464.6897720655688 320.6064231274614 60.50000000000002
  endloop
endfacet
facet normal 1.19551560956033e-06 0.9999999999991775 -4.643172985660283e-07
  outer loop
    vertex 1444.1897720658358 307.6768549328426 1.2047725948449716e-05
    vertex 1441.6897720655688 307.67689312746256 2.99999999999999
    vertex 1444.1897720658358 307.6768549328426 3.0000120477259444
  endloop
endfacet
facet normal 1.19551560956033e-06 0.9999999999991775 -4.643172985660283e-07
  outer loop
    vertex 1426.6897720655686 307.6768931274633 30.99999999999999
    vertex 1441.6897720655688 307.67689312746256 2.99999999999999
    vertex 1426.6897720655686 307.6768931274633 -5.639932965095795e-15
  endloop
endfacet
facet normal 1.19551560956033e-06 0.9999999999991775 -4.643172985660283e-07
  outer loop
    vertex 1444.1897720658358 307.6768549328426 1.2047725948449716e-05
    vertex 1426.6897720655686 307.6768931274633 -5.639932965095795e-15
    vertex 1441.6897720655688 307.67689312746256 2.99999999999999
  endloop
endfacet
facet normal 1.19551560956033e-06 0.9999999999991775 -4.643172985660283e-07
  outer loop
    vertex 1441.6897720655688 307.67689312746256 30.99999999999999
    vertex 1441.6897720655688 307.67689312746256 2.99999999999999
    vertex 1426.6897720655686 307.6768931274633 30.99999999999999
  endloop
endfacet
facet normal -4.798118794950519e-14 -0.9699084734657145 0.24346981968902698
  outer loop
    vertex 1426.6897720655684 301.8564231274633 20.99999999999999
    vertex 1441.6897720655686 301.85642312746245 20.99999999999999
    vertex 1426.6897720655686 304.3666581274633 30.99999999999999
  endloop
endfacet
facet normal -4.798118794950519e-14 -0.9699084734657145 0.24346981968902698
  outer loop
    vertex 1441.6897720655688 304.3666581274626 30.99999999999999
    vertex 1426.6897720655686 304.3666581274633 30.99999999999999
    vertex 1441.6897720655686 301.85642312746245 20.99999999999999
  endloop
endfacet
facet normal 0.0 -0.0 -1.0
  outer loop
    vertex 1426.6897720655686 307.6768931274633 30.99999999999999
    vertex 1426.689772065569 318.36665812746327 30.99999999999999
    vertex 1441.6897720655688 307.67689312746256 30.99999999999999
  endloop
endfacet
facet normal 0.0 -0.0 -1.0
  outer loop
    vertex 1441.6897720655693 318.36665812746236 30.99999999999999
    vertex 1441.6897720655688 307.67689312746256 30.99999999999999
    vertex 1426.689772065569 318.36665812746327 30.99999999999999
  endloop
endfacet
facet normal 0.0 0.0 1.0
  outer loop
    vertex 1426.6897720655686 304.3666581274633 33.999999999999986
    vertex 1441.6897720655688 304.3666581274626 33.999999999999986
    vertex 1426.689772065569 318.36665812746327 33.999999999999986
  endloop
endfacet
facet normal 0.0 0.0 1.0
  outer loop
    vertex 1441.6897720655693 318.36665812746236 33.999999999999986
    vertex 1426.689772065569 318.36665812746327 33.999999999999986
    vertex 1441.6897720655688 304.3666581274626 33.999999999999986
  endloop
endfacet
facet normal 0.0 -0.0 -1.0
  outer loop
    vertex 1426.6897720655684 301.8564231274633 20.99999999999999
    vertex 1426.6897720655686 304.8564231274633 20.99999999999999
    vertex 1441.6897720655686 301.85642312746245 20.99999999999999
  endloop
endfacet
facet normal 0.0 -0.0 -1.0
  outer loop
    vertex 1441.6897720655688 304.85642312746245 20.99999999999999
    vertex 1441.6897720655686 301.85642312746245 20.99999999999999
    vertex 1426.6897720655686 304.8564231274633 20.99999999999999
  endloop
endfacet
facet normal 2.1705982631689447e-06 1.569291064194349e-13 0.9999999999976443
  outer loop
    vertex 1444.1897720658376 345.6166199328424 77.00001204772595
    vertex 1444.1897725987724 329.1166199328423 77.00001204772737
    vertex 1454.1897720655875 345.61666091025535 76.99999034174331
  endloop
endfacet
facet normal 2.1705982631689447e-06 1.569291064194349e-13 0.9999999999976443
  outer loop
    vertex 1454.189772598522 329.1166609102552 76.99999034174473
    vertex 1454.1897720655875 345.61666091025535 76.99999034174331
    vertex 1444.1897725987724 329.1166199328423 77.00001204772737
  endloop
endfacet
facet normal 0.0 0.0 1.0
  outer loop
    vertex 1456.688387586319 332.10633199217796 69.00027591012731
    vertex 1456.6897720672534 328.20633172986453 68.9999581649564
    vertex 1471.1883875846556 332.10641736548433 69.00031986603814
  endloop
endfacet
facet normal 0.0 0.0 1.0
  outer loop
    vertex 1464.6897720655695 328.20642312746133 69.00000000000001
    vertex 1471.1883875846556 332.10641736548433 69.00031986603814
    vertex 1456.6897720672534 328.20633172986453 68.9999581649564
  endloop
endfacet
facet normal 0.0 0.0 1.0
  outer loop
    vertex 1464.6897720655688 320.6064231274614 69.00000000000001
    vertex 1471.1897720655893 320.606417103171 69.00000212086722
    vertex 1464.6897720655695 328.20642312746133 69.00000000000001
  endloop
endfacet
facet normal 0.0 0.0 1.0
  outer loop
    vertex 1471.1883875846556 332.10641736548433 69.00031986603814
    vertex 1464.6897720655695 328.20642312746133 69.00000000000001
    vertex 1471.1897720655893 320.606417103171 69.00000212086722
  endloop
endfacet
facet normal 5.516336485330165e-25 1.114786749945936e-11 -1.0
  outer loop
    vertex 1444.1897720658367 329.30638493284255 64.00001204772597
    vertex 1454.1897720655866 329.3064259102554 63.99999034174334
    vertex 1444.1897844836622 324.6063849329967 64.00001204767356
  endloop
endfacet
facet normal 5.516336485330165e-25 1.114786749945936e-11 -1.0
  outer loop
    vertex 1454.189784483412 324.6064259104096 63.99999034169093
    vertex 1444.1897844836622 324.6063849329967 64.00001204767356
    vertex 1454.1897720655866 329.3064259102554 63.99999034174334
  endloop
endfacet
facet normal 0.999999999979605 6.024290181912901e-06 -2.12086721126366e-06
  outer loop
    vertex 1471.1883875846556 332.10641736548433 69.00031986603814
    vertex 1471.1897720655893 320.6064171031709 25.500002120867208
    vertex 1471.1883875846556 332.10641736548433 0.0003198660381084628
  endloop
endfacet
facet normal 0.999999999979605 6.024290181912901e-06 -2.12086721126366e-06
  outer loop
    vertex 1471.1897720655863 253.6268871031711 2.120867200205989e-06
    vertex 1471.1883875846556 332.10641736548433 0.0003198660381084628
    vertex 1471.1897720655893 320.6064171031709 25.500002120867208
  endloop
endfacet
facet normal 0.999999999979605 6.024290181912901e-06 -2.12086721126366e-06
  outer loop
    vertex 1471.1897720655893 320.606417103171 69.00000212086722
    vertex 1471.1897720655893 320.6064171031709 25.500002120867208
    vertex 1471.1883875846556 332.10641736548433 69.00031986603814
  endloop
endfacet
facet normal 0.999999999979605 6.024290181912901e-06 -2.12086721126366e-06
  outer loop
    vertex 1471.1897739213475 303.7166581274613 22.000002120868185
    vertex 1471.1897720655863 253.6268871031711 2.120867200205989e-06
    vertex 1471.1897720655893 320.6064171031709 25.500002120867208
  endloop
endfacet
facet normal 0.999999999979605 6.024290181912901e-06 -2.12086721126366e-06
  outer loop
    vertex 1471.189773921345 253.6268871031711 22.000002120868178
    vertex 1471.1897720655863 253.6268871031711 2.120867200205989e-06
    vertex 1471.1897739213475 303.7166581274613 22.000002120868185
  endloop
endfacet
facet normal 0.999999999979605 6.024290181912901e-06 -2.12086721126366e-06
  outer loop
    vertex 1471.1897720655863 253.6268871031711 8.000002120867201
    vertex 1471.1897720655863 253.6268871031711 2.120867200205989e-06
    vertex 1471.189773921345 253.6268871031711 22.000002120868178
  endloop
endfacet
facet normal 0.999999999979605 6.024290181912901e-06 -2.12086721126366e-06
  outer loop
    vertex 1471.1897739213475 303.7166581274613 22.000002120868185
    vertex 1471.1897720655893 320.6064171031709 25.500002120867208
    vertex 1471.1897720655888 303.7166581274613 25.500002120867208
  endloop
endfacet
facet normal 0.0004377520990001134 0.9999999013398366 -7.545473554986307e-05
  outer loop
    vertex 1444.1883875849023 332.1165906383777 74.00032979289689
    vertex 1454.1891154374384 332.1268960582456 39.00010352384663
    vertex 1444.1883875849026 332.10638519515595 0.0003297928968524766
  endloop
endfacet
facet normal 0.0004377520990001134 0.9999999013398366 -7.545473554986307e-05
  outer loop
    vertex 1456.6891154391055 332.10633187785487 39.00007134705971
    vertex 1444.1883875849026 332.10638519515595 0.0003297928968524766
    vertex 1454.1891154374384 332.1268960582456 39.00010352384663
  endloop
endfacet
facet normal 0.0004377520990001134 0.9999999013398366 -7.545473554986307e-05
  outer loop
    vertex 1454.188387584652 332.1166316157906 74.00030808691426
    vertex 1454.1891154374384 332.1268960582456 39.00010352384663
    vertex 1444.1883875849023 332.1165906383777 74.00032979289689
  endloop
endfacet
facet normal 0.0004377520990001134 0.9999999013398366 -7.545473554986307e-05
  outer loop
    vertex 1471.1883875846556 332.10641736548433 0.0003198660381084628
    vertex 1444.1883875849026 332.10638519515595 0.0003297928968524766
    vertex 1471.1883875846556 332.10641736548433 69.00031986603814
  endloop
endfacet
facet normal 0.0004377520990001134 0.9999999013398366 -7.545473554986307e-05
  outer loop
    vertex 1456.6891154391055 332.10633187785487 39.00007134705971
    vertex 1471.1883875846556 332.10641736548433 69.00031986603814
    vertex 1444.1883875849026 332.10638519515595 0.0003297928968524766
  endloop
endfacet
facet normal 0.0004377520990001134 0.9999999013398366 -7.545473554986307e-05
  outer loop
    vertex 1456.688387586319 332.10633199217796 69.00027591012731
    vertex 1471.1883875846556 332.10641736548433 69.00031986603814
    vertex 1456.6891154391055 332.10633187785487 39.00007134705971
  endloop
endfacet
facet normal -4.9469810051310264e-14 -1.0 0.0
  outer loop
    vertex 1426.6897720655686 304.8564231274633 4.999999999999989
    vertex 1441.6897720655688 304.85642312746245 4.999999999999989
    vertex 1426.6897720655686 304.8564231274633 20.99999999999999
  endloop
endfacet
facet normal -4.9469810051310264e-14 -1.0 0.0
  outer loop
    vertex 1441.6897720655688 304.85642312746245 20.99999999999999
    vertex 1426.6897720655686 304.8564231274633 20.99999999999999
    vertex 1441.6897720655688 304.85642312746245 4.999999999999989
  endloop
endfacet
facet normal 4.9592274731225e-14 1.0 0.0
  outer loop
    vertex 1454.1897720655875 345.61666091025535 73.99999034174334
    vertex 1444.1897720658376 345.6166199328424 74.00001204772597
    vertex 1454.1897720655875 345.61666091025535 76.99999034174331
  endloop
endfacet
facet normal 4.9592274731225e-14 1.0 0.0
  outer loop
    vertex 1444.1897720658376 345.6166199328424 77.00001204772595
    vertex 1454.1897720655875 345.61666091025535 76.99999034174331
    vertex 1444.1897720658376 345.6166199328424 74.00001204772597
  endloop
endfacet
facet normal -1.0 5.175186426189538e-14 -4.62794495988042e-15
  outer loop
    vertex 1426.689772065566 253.62689312746338 -5.639932965095795e-15
    vertex 1426.6897720655686 302.8564231274633 2.99999999999999
    vertex 1426.6897720655686 307.6768931274633 -5.639932965095795e-15
  endloop
endfacet
facet normal -1.0 5.175186426189538e-14 -4.62794495988042e-15
  outer loop
    vertex 1426.6897720655686 304.8564231274633 4.999999999999989
    vertex 1426.6897720655686 307.6768931274633 -5.639932965095795e-15
    vertex 1426.6897720655686 302.8564231274633 2.99999999999999
  endloop
endfacet
facet normal -1.0 5.175186426189538e-14 -4.62794495988042e-15
  outer loop
    vertex 1426.6897720655686 304.8564231274633 20.99999999999999
    vertex 1426.6897720655686 307.6768931274633 -5.639932965095795e-15
    vertex 1426.6897720655686 304.8564231274633 4.999999999999989
  endloop
endfacet
facet normal -1.0 5.175186426189538e-14 -4.62794495988042e-15
  outer loop
    vertex 1426.6897720655686 302.8564231274633 4.999999999999989
    vertex 1426.6897720655686 304.8564231274633 4.999999999999989
    vertex 1426.6897720655686 302.8564231274633 2.99999999999999
  endloop
endfacet
facet normal -1.0 5.175186426189538e-14 -4.62794495988042e-15
  outer loop
    vertex 1426.689772065566 253.62689312746338 2.99999999999999
    vertex 1426.6897720655686 302.8564231274633 2.99999999999999
    vertex 1426.689772065566 253.62689312746338 -5.639932965095795e-15
  endloop
endfacet
facet normal -1.0 5.175186426189538e-14 -4.62794495988042e-15
  outer loop
    vertex 1426.689772065569 318.36665812746327 33.999999999999986
    vertex 1426.689772065569 318.36665812746327 30.99999999999999
    vertex 1426.6897720655686 304.3666581274633 33.999999999999986
  endloop
endfacet
facet normal -1.0 5.175186426189538e-14 -4.62794495988042e-15
  outer loop
    vertex 1426.6897720655686 307.6768931274633 30.99999999999999
    vertex 1426.6897720655686 304.3666581274633 33.999999999999986
    vertex 1426.689772065569 318.36665812746327 30.99999999999999
  endloop
endfacet
facet normal -1.0 5.175186426189538e-14 -4.62794495988042e-15
  outer loop
    vertex 1426.6897720655686 307.6768931274633 -5.639932965095795e-15
    vertex 1426.6897720655686 304.3666581274633 33.999999999999986
    vertex 1426.6897720655686 307.6768931274633 30.99999999999999
  endloop
endfacet
facet normal -1.0 5.175186426189538e-14 -4.62794495988042e-15
  outer loop
    vertex 1426.6897720655686 304.8564231274633 20.99999999999999
    vertex 1426.6897720655686 304.3666581274633 33.999999999999986
    vertex 1426.6897720655686 307.6768931274633 -5.639932965095795e-15
  endloop
endfacet
facet normal -1.0 5.175186426189538e-14 -4.62794495988042e-15
  outer loop
    vertex 1426.6897720655686 304.3666581274633 30.99999999999999
    vertex 1426.6897720655686 304.3666581274633 33.999999999999986
    vertex 1426.6897720655686 304.8564231274633 20.99999999999999
  endloop
endfacet
facet normal -1.0 5.175186426189538e-14 -4.62794495988042e-15
  outer loop
    vertex 1426.6897720655684 301.8564231274633 20.99999999999999
    vertex 1426.6897720655686 304.3666581274633 30.99999999999999
    vertex 1426.6897720655686 304.8564231274633 20.99999999999999
  endloop
endfacet
facet normal -1.386713264622077e-16 -5.872449267665164e-17 -1.0
  outer loop
    vertex 1426.689772065566 253.62689312746338 -5.639932965095795e-15
    vertex 1426.6897720655686 307.6768931274633 -5.639932965095795e-15
    vertex 1471.1897720655863 253.6268871031711 2.120867200205989e-06
  endloop
endfacet
facet normal -1.386713264622077e-16 -5.872449267665164e-17 -1.0
  outer loop
    vertex 1444.1897720658358 307.6768549328426 1.2047725948449716e-05
    vertex 1471.1897720655863 253.6268871031711 2.120867200205989e-06
    vertex 1426.6897720655686 307.6768931274633 -5.639932965095795e-15
  endloop
endfacet
facet normal -1.386713264622077e-16 -5.872449267665164e-17 -1.0
  outer loop
    vertex 1471.1883875846556 332.10641736548433 0.0003198660381084628
    vertex 1471.1897720655863 253.6268871031711 2.120867200205989e-06
    vertex 1444.1897720658358 307.6768549328426 1.2047725948449716e-05
  endloop
endfacet
facet normal -1.386713264622077e-16 -5.872449267665164e-17 -1.0
  outer loop
    vertex 1444.1897720658358 307.6768549328426 1.2047725948449716e-05
    vertex 1444.1883875849026 332.10638519515595 0.0003297928968524766
    vertex 1471.1883875846556 332.10641736548433 0.0003198660381084628
  endloop
endfacet
facet normal -1.0 4.9469810051310264e-14 0.0
  outer loop
    vertex 1444.189772065836 308.87689312746227 25.499999999999993
    vertex 1444.189772065836 308.87689312746227 2.99999999999999
    vertex 1444.1897720658358 303.71665812746227 25.499999999999993
  endloop
endfacet
facet normal -1.0 4.9469810051310264e-14 0.0
  outer loop
    vertex 1444.1897720658358 307.6768549328426 3.0000120477259444
    vertex 1444.1897720658358 303.71665812746227 25.499999999999993
    vertex 1444.189772065836 308.87689312746227 2.99999999999999
  endloop
endfacet
facet normal -1.0 4.9469810051310264e-14 0.0
  outer loop
    vertex 1444.1897720658358 303.71665812746227 18.49999999999999
    vertex 1444.1897720658358 303.71665812746227 25.499999999999993
    vertex 1444.1897720658358 307.6768549328426 3.0000120477259444
  endloop
endfacet
facet normal -1.0 4.9469810051310264e-14 0.0
  outer loop
    vertex 1444.1897720658355 298.87689312746244 2.99999999999999
    vertex 1444.1897720658358 303.71665812746227 18.49999999999999
    vertex 1444.1897720658358 307.6768549328426 3.0000120477259444
  endloop
endfacet
facet normal -1.0 4.9469810051310264e-14 0.0
  outer loop
    vertex 1444.1897720658355 298.87689312746244 18.49999999999999
    vertex 1444.1897720658358 303.71665812746227 18.49999999999999
    vertex 1444.1897720658355 298.87689312746244 2.99999999999999
  endloop
endfacet
facet normal 4.554637842337194e-14 1.0 0.0
  outer loop
    vertex 1467.1897720655686 308.87689312746136 2.99999999999999
    vertex 1444.189772065836 308.87689312746227 2.99999999999999
    vertex 1467.1897720655686 308.87689312746136 25.499999999999993
  endloop
endfacet
facet normal 4.554637842337194e-14 1.0 0.0
  outer loop
    vertex 1444.189772065836 308.87689312746227 25.499999999999993
    vertex 1467.1897720655686 308.87689312746136 25.499999999999993
    vertex 1444.189772065836 308.87689312746227 2.99999999999999
  endloop
endfacet
facet normal -4.9469810051310264e-14 -1.0 0.0
  outer loop
    vertex 1426.6897720655686 304.3666581274633 30.99999999999999
    vertex 1441.6897720655688 304.3666581274626 30.99999999999999
    vertex 1426.6897720655686 304.3666581274633 33.999999999999986
  endloop
endfacet
facet normal -4.9469810051310264e-14 -1.0 0.0
  outer loop
    vertex 1441.6897720655688 304.3666581274626 33.999999999999986
    vertex 1426.6897720655686 304.3666581274633 33.999999999999986
    vertex 1441.6897720655688 304.3666581274626 30.99999999999999
  endloop
endfacet
facet normal 4.097741294105599e-06 -0.9999999999916043 -2.4389449510614836e-22
  outer loop
    vertex 1454.189772598522 329.1166609102552 73.99999034174476
    vertex 1454.189772598522 329.1166609102552 76.99999034174473
    vertex 1444.1897725987724 329.1166199328423 74.0000120477274
  endloop
endfacet
facet normal 4.097741294105599e-06 -0.9999999999916043 -2.4389449510614836e-22
  outer loop
    vertex 1444.1897725987724 329.1166199328423 77.00001204772737
    vertex 1444.1897725987724 329.1166199328423 74.0000120477274
    vertex 1454.189772598522 329.1166609102552 76.99999034174473
  endloop
endfacet
facet normal -4.9592274731225e-14 -1.0 0.0
  outer loop
    vertex 1454.1897720655857 329.30641361704244 40.99999739618796
    vertex 1454.1897720655866 329.3064259102554 63.99999034174334
    vertex 1444.1897731511353 329.30639722607737 41.0000049932813
  endloop
endfacet
facet normal -4.9592274731225e-14 -1.0 0.0
  outer loop
    vertex 1444.1897720658367 329.30638493284255 64.00001204772597
    vertex 1444.1897731511353 329.30639722607737 41.0000049932813
    vertex 1454.1897720655866 329.3064259102554 63.99999034174334
  endloop
endfacet
facet normal 0.0 -0.0 -1.0
  outer loop
    vertex 1444.1883875849023 332.1165906383777 74.00032979289689
    vertex 1444.1897720658376 345.6166199328424 74.00001204772597
    vertex 1454.188387584652 332.1166316157906 74.00030808691426
  endloop
endfacet
facet normal 0.0 -0.0 -1.0
  outer loop
    vertex 1454.1897720655875 345.61666091025535 73.99999034174334
    vertex 1454.188387584652 332.1166316157906 74.00030808691426
    vertex 1444.1897720658376 345.6166199328424 74.00001204772597
  endloop
endfacet
facet normal -5.172485019703389e-14 -1.0 1.6485122361967444e-15
  outer loop
    vertex 1467.1897720655688 320.60642312746137 2.9999999999999947
    vertex 1467.1897720655688 320.60642312746137 25.5
    vertex 1444.1897720658362 320.60638493284245 3.00001204772595
  endloop
endfacet
facet normal -5.172485019703389e-14 -1.0 1.6485122361967444e-15
  outer loop
    vertex 1444.189772065836 320.6063849328425 39.00001204772595
    vertex 1444.1897720658362 320.60638493284245 3.00001204772595
    vertex 1467.1897720655688 320.60642312746137 25.5
  endloop
endfacet
facet normal -5.172485019703389e-14 -1.0 1.6485122361967444e-15
  outer loop
    vertex 1471.1897720655893 320.6064171031709 25.500002120867208
    vertex 1444.189772065836 320.6063849328425 39.00001204772595
    vertex 1467.1897720655688 320.60642312746137 25.5
  endloop
endfacet
facet normal -5.172485019703389e-14 -1.0 1.6485122361967444e-15
  outer loop
    vertex 1456.6897720672528 320.6063317298646 38.99995816495639
    vertex 1444.189772065836 320.6063849328425 39.00001204772595
    vertex 1471.1897720655893 320.6064171031709 25.500002120867208
  endloop
endfacet
facet normal -5.172485019703389e-14 -1.0 1.6485122361967444e-15
  outer loop
    vertex 1471.1897720655893 320.6064171031709 25.500002120867208
    vertex 1471.1897720655893 320.606417103171 69.00000212086722
    vertex 1456.6897720672528 320.6063317298646 38.99995816495639
  endloop
endfacet
facet normal -5.172485019703389e-14 -1.0 1.6485122361967444e-15
  outer loop
    vertex 1464.6897720655688 320.6064231274614 60.50000000000002
    vertex 1456.6897720672528 320.6063317298646 38.99995816495639
    vertex 1471.1897720655893 320.606417103171 69.00000212086722
  endloop
endfacet
facet normal -5.172485019703389e-14 -1.0 1.6485122361967444e-15
  outer loop
    vertex 1456.6897720672528 320.6063317298646 60.49995816495641
    vertex 1456.6897720672528 320.6063317298646 38.99995816495639
    vertex 1464.6897720655688 320.6064231274614 60.50000000000002
  endloop
endfacet
facet normal -5.172485019703389e-14 -1.0 1.6485122361967444e-15
  outer loop
    vertex 1464.6897720655688 320.6064231274614 69.00000000000001
    vertex 1464.6897720655688 320.6064231274614 60.50000000000002
    vertex 1471.1897720655893 320.606417103171 69.00000212086722
  endloop
endfacet
facet normal -1.0 4.9592274731225e-14 0.0
  outer loop
    vertex 1464.6897720655695 328.20642312746133 69.00000000000001
    vertex 1464.6897720655695 328.20642312746133 60.50000000000002
    vertex 1464.6897720655688 320.6064231274614 69.00000000000001
  endloop
endfacet
facet normal -1.0 4.9592274731225e-14 0.0
  outer loop
    vertex 1464.6897720655688 320.6064231274614 60.50000000000002
    vertex 1464.6897720655688 320.6064231274614 69.00000000000001
    vertex 1464.6897720655695 328.20642312746133 60.50000000000002
  endloop
endfacet
facet normal -4.9592274731225e-14 -1.0 0.0
  outer loop
    vertex 1456.6897720672534 328.20633172986453 60.49995816495641
    vertex 1464.6897720655695 328.20642312746133 60.50000000000002
    vertex 1456.6897720672534 328.20633172986453 68.9999581649564
  endloop
endfacet
facet normal -4.9592274731225e-14 -1.0 0.0
  outer loop
    vertex 1464.6897720655695 328.20642312746133 69.00000000000001
    vertex 1456.6897720672534 328.20633172986453 68.9999581649564
    vertex 1464.6897720655695 328.20642312746133 60.50000000000002
  endloop
endfacet
facet normal -4.9469810051310264e-14 -1.0 0.0
  outer loop
    vertex 1467.189772065566 253.62689312746159 7.999999999999989
    vertex 1471.1897720655863 253.6268871031711 8.000002120867201
    vertex 1467.1897720655668 253.62689312746159 21.99999999999999
  endloop
endfacet
facet normal -4.9469810051310264e-14 -1.0 0.0
  outer loop
    vertex 1471.189773921345 253.6268871031711 22.000002120868178
    vertex 1467.1897720655668 253.62689312746159 21.99999999999999
    vertex 1471.1897720655863 253.6268871031711 8.000002120867201
  endloop
endfacet
facet normal -1.0 4.9469810051310264e-14 0.0
  outer loop
    vertex 1467.1897720655688 320.60642312746137 25.5
    vertex 1467.1897720655688 320.60642312746137 2.9999999999999947
    vertex 1467.1897720655686 308.87689312746136 25.499999999999993
  endloop
endfacet
facet normal -1.0 4.9469810051310264e-14 0.0
  outer loop
    vertex 1467.1897720655686 308.87689312746136 2.99999999999999
    vertex 1467.1897720655686 308.87689312746136 25.499999999999993
    vertex 1467.1897720655688 320.60642312746137 2.9999999999999947
  endloop
endfacet
facet normal 2.61907512413344e-07 -5.13563883859966e-07 0.9999999999998339
  outer loop
    vertex 1444.1897720658362 320.60638493284245 3.00001204772595
    vertex 1444.189772065836 308.87689312746227 2.99999999999999
    vertex 1467.1897720655688 320.60642312746137 2.9999999999999947
  endloop
endfacet
facet normal 2.61907512413344e-07 -5.13563883859966e-07 0.9999999999998339
  outer loop
    vertex 1467.1897720655686 308.87689312746136 2.99999999999999
    vertex 1467.1897720655688 320.60642312746137 2.9999999999999947
    vertex 1444.189772065836 308.87689312746227 2.99999999999999
  endloop
endfacet
facet normal 0.0 0.0 1.0
  outer loop
    vertex 1426.6897720655686 302.8564231274633 4.999999999999989
    vertex 1441.6897720655686 302.85642312746245 4.999999999999989
    vertex 1426.6897720655686 304.8564231274633 4.999999999999989
  endloop
endfacet
facet normal 0.0 0.0 1.0
  outer loop
    vertex 1441.6897720655688 304.85642312746245 4.999999999999989
    vertex 1426.6897720655686 304.8564231274633 4.999999999999989
    vertex 1441.6897720655686 302.85642312746245 4.999999999999989
  endloop
endfacet
facet normal -4.9469810051310264e-14 -1.0 0.0
  outer loop
    vertex 1426.6897720655686 302.8564231274633 2.99999999999999
    vertex 1441.6897720655686 302.85642312746245 2.99999999999999
    vertex 1426.6897720655686 302.8564231274633 4.999999999999989
  endloop
endfacet
facet normal -4.9469810051310264e-14 -1.0 0.0
  outer loop
    vertex 1441.6897720655686 302.85642312746245 4.999999999999989
    vertex 1426.6897720655686 302.8564231274633 4.999999999999989
    vertex 1441.6897720655686 302.85642312746245 2.99999999999999
  endloop
endfacet
facet normal 1.3697727544546522e-06 -8.25709013536868e-06 0.9999999999649722
  outer loop
    vertex 1454.1891154374384 332.1268960582456 39.00010352384663
    vertex 1454.1897709802913 327.30640542155385 38.999999566786514
    vertex 1456.6891154391055 332.10633187785487 39.00007134705971
  endloop
endfacet
facet normal 1.3697727544546522e-06 -8.25709013536868e-06 0.9999999999649722
  outer loop
    vertex 1444.1897720658317 327.30640542155413 39.000002822683335
    vertex 1444.189772065836 320.6063849328425 39.00001204772595
    vertex 1454.1897709802913 327.30640542155385 38.999999566786514
  endloop
endfacet
facet normal 1.3697727544546522e-06 -8.25709013536868e-06 0.9999999999649722
  outer loop
    vertex 1456.6897720672528 320.6063317298646 38.99995816495639
    vertex 1454.1897709802913 327.30640542155385 38.999999566786514
    vertex 1444.189772065836 320.6063849328425 39.00001204772595
  endloop
endfacet
facet normal 1.3697727544546522e-06 -8.25709013536868e-06 0.9999999999649722
  outer loop
    vertex 1456.6891154391055 332.10633187785487 39.00007134705971
    vertex 1454.1897709802913 327.30640542155385 38.999999566786514
    vertex 1456.6897720672528 320.6063317298646 38.99995816495639
  endloop
endfacet
facet normal 5.426495652099243e-07 2.964850054270832e-12 0.9999999999998528
  outer loop
    vertex 1444.1897731511308 327.30640542156004 41.00000282268304
    vertex 1454.1897720655904 327.30640542155976 40.999999566786215
    vertex 1444.1897731511353 329.30639722607737 41.0000049932813
  endloop
endfacet
facet normal 5.426495652099243e-07 2.964850054270832e-12 0.9999999999998528
  outer loop
    vertex 1454.1897720655857 329.30641361704244 40.99999739618796
    vertex 1444.1897731511353 329.30639722607737 41.0000049932813
    vertex 1454.1897720655904 327.30640542155976 40.999999566786215
  endloop
endfacet
facet normal 0.9999999999974041 -1.209147911200001e-06 1.9312850269590295e-06
  outer loop
    vertex 1454.188387584652 332.1166316157906 74.00030808691426
    vertex 1454.1897720655857 329.30641361704244 40.99999739618796
    vertex 1454.1891154374384 332.1268960582456 39.00010352384663
  endloop
endfacet
facet normal 0.9999999999974041 -1.209147911200001e-06 1.9312850269590295e-06
  outer loop
    vertex 1454.1897709802913 327.30640542155385 38.999999566786514
    vertex 1454.1891154374384 332.1268960582456 39.00010352384663
    vertex 1454.1897720655857 329.30641361704244 40.99999739618796
  endloop
endfacet
facet normal 0.9999999999974041 -1.209147911200001e-06 1.9312850269590295e-06
  outer loop
    vertex 1454.1897720655866 329.3064259102554 63.99999034174334
    vertex 1454.1897720655857 329.30641361704244 40.99999739618796
    vertex 1454.188387584652 332.1166316157906 74.00030808691426
  endloop
endfacet
facet normal 0.9999999999974041 -1.209147911200001e-06 1.9312850269590295e-06
  outer loop
    vertex 1454.1897720655904 327.30640542155976 40.999999566786215
    vertex 1454.1897709802913 327.30640542155385 38.999999566786514
    vertex 1454.1897720655857 329.30641361704244 40.99999739618796
  endloop
endfacet
facet normal 0.9999999999974041 -1.209147911200001e-06 1.9312850269590295e-06
  outer loop
    vertex 1454.1897720655866 329.3064259102554 63.99999034174334
    vertex 1454.189772598522 329.1166609102552 73.99999034174476
    vertex 1454.189784483412 324.6064259104096 63.99999034169093
  endloop
endfacet
facet normal 0.9999999999974041 -1.209147911200001e-06 1.9312850269590295e-06
  outer loop
    vertex 1454.1897720655875 345.61666091025535 73.99999034174334
    vertex 1454.1897720655875 345.61666091025535 76.99999034174331
    vertex 1454.188387584652 332.1166316157906 74.00030808691426
  endloop
endfacet
facet normal 0.9999999999974041 -1.209147911200001e-06 1.9312850269590295e-06
  outer loop
    vertex 1454.189772598522 329.1166609102552 76.99999034174473
    vertex 1454.188387584652 332.1166316157906 74.00030808691426
    vertex 1454.1897720655875 345.61666091025535 76.99999034174331
  endloop
endfacet
facet normal 0.9999999999974041 -1.209147911200001e-06 1.9312850269590295e-06
  outer loop
    vertex 1454.1897720655866 329.3064259102554 63.99999034174334
    vertex 1454.188387584652 332.1166316157906 74.00030808691426
    vertex 1454.189772598522 329.1166609102552 76.99999034174473
  endloop
endfacet
facet normal 0.9999999999974041 -1.209147911200001e-06 1.9312850269590295e-06
  outer loop
    vertex 1454.189772598522 329.1166609102552 73.99999034174476
    vertex 1454.1897720655866 329.3064259102554 63.99999034174334
    vertex 1454.189772598522 329.1166609102552 76.99999034174473
  endloop
endfacet
facet normal -2.6909113518590215e-14 -1.0 2.955324861468084e-12
  outer loop
    vertex 1454.1897709802913 327.30640542155385 38.999999566786514
    vertex 1454.1897720655904 327.30640542155976 40.999999566786215
    vertex 1444.1897720658317 327.30640542155413 39.000002822683335
  endloop
endfacet
facet normal -2.6909113518590215e-14 -1.0 2.955324861468084e-12
  outer loop
    vertex 1444.1897731511308 327.30640542156004 41.00000282268304
    vertex 1444.1897720658317 327.30640542155413 39.000002822683335
    vertex 1454.1897720655904 327.30640542155976 40.999999566786215
  endloop
endfacet
facet normal -0.9999999997049018 -2.3220273244891138e-05 7.14250571298078e-06
  outer loop
    vertex 1444.1897720658376 345.6166199328424 77.00001204772595
    vertex 1444.1897720658376 345.6166199328424 74.00001204772597
    vertex 1444.1897725987724 329.1166199328423 77.00001204772737
  endloop
endfacet
facet normal -0.9999999997049018 -2.3220273244891138e-05 7.14250571298078e-06
  outer loop
    vertex 1444.1883875849023 332.1165906383777 74.00032979289689
    vertex 1444.1897725987724 329.1166199328423 77.00001204772737
    vertex 1444.1897720658376 345.6166199328424 74.00001204772597
  endloop
endfacet
facet normal -0.9999999997049018 -2.3220273244891138e-05 7.14250571298078e-06
  outer loop
    vertex 1444.1883875849026 332.10638519515595 0.0003297928968524766
    vertex 1444.1897725987724 329.1166199328423 77.00001204772737
    vertex 1444.1883875849023 332.1165906383777 74.00032979289689
  endloop
endfacet
facet normal -0.9999999997049018 -2.3220273244891138e-05 7.14250571298078e-06
  outer loop
    vertex 1444.1897720658367 329.30638493284255 64.00001204772597
    vertex 1444.1897725987724 329.1166199328423 77.00001204772737
    vertex 1444.1883875849026 332.10638519515595 0.0003297928968524766
  endloop
endfacet
facet normal -0.9999999997049018 -2.3220273244891138e-05 7.14250571298078e-06
  outer loop
    vertex 1444.1897731511353 329.30639722607737 41.0000049932813
    vertex 1444.1897720658367 329.30638493284255 64.00001204772597
    vertex 1444.1883875849026 332.10638519515595 0.0003297928968524766
  endloop
endfacet
facet normal -0.9999999997049018 -2.3220273244891138e-05 7.14250571298078e-06
  outer loop
    vertex 1444.1897725987724 329.1166199328423 74.0000120477274
    vertex 1444.1897725987724 329.1166199328423 77.00001204772737
    vertex 1444.1897720658367 329.30638493284255 64.00001204772597
  endloop
endfacet
facet normal -0.9999999997049018 -2.3220273244891138e-05 7.14250571298078e-06
  outer loop
    vertex 1444.1897844836622 324.6063849329967 64.00001204767356
    vertex 1444.1897725987724 329.1166199328423 74.0000120477274
    vertex 1444.1897720658367 329.30638493284255 64.00001204772597
  endloop
endfacet
facet normal -0.9999999997049018 -2.3220273244891138e-05 7.14250571298078e-06
  outer loop
    vertex 1444.1897720658358 307.6768549328426 1.2047725948449716e-05
    vertex 1444.1897720658362 320.60638493284245 3.00001204772595
    vertex 1444.1883875849026 332.10638519515595 0.0003297928968524766
  endloop
endfacet
facet normal -0.9999999997049018 -2.3220273244891138e-05 7.14250571298078e-06
  outer loop
    vertex 1444.1897731511353 329.30639722607737 41.0000049932813
    vertex 1444.1883875849026 332.10638519515595 0.0003297928968524766
    vertex 1444.1897720658362 320.60638493284245 3.00001204772595
  endloop
endfacet
facet normal -0.9999999997049018 -2.3220273244891138e-05 7.14250571298078e-06
  outer loop
    vertex 1444.1897720658317 327.30640542155413 39.000002822683335
    vertex 1444.1897731511353 329.30639722607737 41.0000049932813
    vertex 1444.1897720658362 320.60638493284245 3.00001204772595
  endloop
endfacet
facet normal -0.9999999997049018 -2.3220273244891138e-05 7.14250571298078e-06
  outer loop
    vertex 1444.1897731511308 327.30640542156004 41.00000282268304
    vertex 1444.1897731511353 329.30639722607737 41.0000049932813
    vertex 1444.1897720658317 327.30640542155413 39.000002822683335
  endloop
endfacet
facet normal -0.9999999997049018 -2.3220273244891138e-05 7.14250571298078e-06
  outer loop
    vertex 1444.189772065836 320.6063849328425 39.00001204772595
    vertex 1444.1897720658317 327.30640542155413 39.000002822683335
    vertex 1444.1897720658362 320.60638493284245 3.00001204772595
  endloop
endfacet
facet normal -0.9999999997049018 -2.3220273244891138e-05 7.14250571298078e-06
  outer loop
    vertex 1444.189772065836 308.87689312746227 2.99999999999999
    vertex 1444.1897720658362 320.60638493284245 3.00001204772595
    vertex 1444.1897720658358 307.6768549328426 1.2047725948449716e-05
  endloop
endfacet
facet normal -0.9999999997049018 -2.3220273244891138e-05 7.14250571298078e-06
  outer loop
    vertex 1444.1897720658358 307.6768549328426 3.0000120477259444
    vertex 1444.189772065836 308.87689312746227 2.99999999999999
    vertex 1444.1897720658358 307.6768549328426 1.2047725948449716e-05
  endloop
endfacet
facet normal -4.440464015145648e-09 -5.4643162169605054e-08 0.9999999999999984
  outer loop
    vertex 1441.6897720655688 307.67689312746256 2.99999999999999
    vertex 1444.1897720658355 298.87689312746244 2.99999999999999
    vertex 1444.1897720658358 307.6768549328426 3.0000120477259444
  endloop
endfacet
facet normal -4.440464015145648e-09 -5.4643162169605054e-08 0.9999999999999984
  outer loop
    vertex 1426.689772065566 253.62689312746338 2.99999999999999
    vertex 1467.189772065566 253.62689312746159 2.99999999999999
    vertex 1426.6897720655686 302.8564231274633 2.99999999999999
  endloop
endfacet
facet normal -4.440464015145648e-09 -5.4643162169605054e-08 0.9999999999999984
  outer loop
    vertex 1441.6897720655686 302.85642312746245 2.99999999999999
    vertex 1426.6897720655686 302.8564231274633 2.99999999999999
    vertex 1467.189772065566 253.62689312746159 2.99999999999999
  endloop
endfacet
facet normal -4.440464015145648e-09 -5.4643162169605054e-08 0.9999999999999984
  outer loop
    vertex 1444.1897720658355 298.87689312746244 2.99999999999999
    vertex 1441.6897720655686 302.85642312746245 2.99999999999999
    vertex 1467.189772065566 253.62689312746159 2.99999999999999
  endloop
endfacet
facet normal -4.440464015145648e-09 -5.4643162169605054e-08 0.9999999999999984
  outer loop
    vertex 1441.6897720655688 307.67689312746256 2.99999999999999
    vertex 1441.6897720655686 302.85642312746245 2.99999999999999
    vertex 1444.1897720658355 298.87689312746244 2.99999999999999
  endloop
endfacet
facet normal -4.440464015145648e-09 -5.4643162169605054e-08 0.9999999999999984
  outer loop
    vertex 1467.1897720655681 298.8768931274615 2.99999999999999
    vertex 1444.1897720658355 298.87689312746244 2.99999999999999
    vertex 1467.189772065566 253.62689312746159 2.99999999999999
  endloop
endfacet
facet normal -1.0 4.185433462313974e-14 2.29404357256679e-14
  outer loop
    vertex 1467.1897720655686 303.7166581274614 21.99999999999999
    vertex 1467.1897720655686 303.7166581274614 18.49999999999999
    vertex 1467.1897720655668 253.62689312746159 21.99999999999999
  endloop
endfacet
facet normal -1.0 4.185433462313974e-14 2.29404357256679e-14
  outer loop
    vertex 1467.1897720655681 298.8768931274615 18.49999999999999
    vertex 1467.1897720655668 253.62689312746159 21.99999999999999
    vertex 1467.1897720655686 303.7166581274614 18.49999999999999
  endloop
endfacet
facet normal -1.0 4.185433462313974e-14 2.29404357256679e-14
  outer loop
    vertex 1467.1897720655681 298.8768931274615 2.99999999999999
    vertex 1467.1897720655668 253.62689312746159 21.99999999999999
    vertex 1467.1897720655681 298.8768931274615 18.49999999999999
  endloop
endfacet
facet normal -1.0 4.185433462313974e-14 2.29404357256679e-14
  outer loop
    vertex 1467.189772065566 253.62689312746159 2.99999999999999
    vertex 1467.1897720655668 253.62689312746159 21.99999999999999
    vertex 1467.1897720655681 298.8768931274615 2.99999999999999
  endloop
endfacet
facet normal -1.0 4.185433462313974e-14 2.29404357256679e-14
  outer loop
    vertex 1467.189772065566 253.62689312746159 7.999999999999989
    vertex 1467.1897720655668 253.62689312746159 21.99999999999999
    vertex 1467.189772065566 253.62689312746159 2.99999999999999
  endloop
endfacet
facet normal -5.302168018647159e-07 -5.610731071693912e-17 0.9999999999998594
  outer loop
    vertex 1467.1897720655668 253.62689312746159 21.99999999999999
    vertex 1471.189773921345 253.6268871031711 22.000002120868178
    vertex 1467.1897720655686 303.7166581274614 21.99999999999999
  endloop
endfacet
facet normal -5.302168018647159e-07 -5.610731071693912e-17 0.9999999999998594
  outer loop
    vertex 1471.1897739213475 303.7166581274613 22.000002120868185
    vertex 1467.1897720655686 303.7166581274614 21.99999999999999
    vertex 1471.189773921345 253.6268871031711 22.000002120868178
  endloop
endfacet
facet normal -3.878028884518661e-14 -1.0 3.6881063075425e-15
  outer loop
    vertex 1444.1897720658358 303.71665812746227 18.49999999999999
    vertex 1467.1897720655686 303.7166581274614 18.49999999999999
    vertex 1444.1897720658358 303.71665812746227 25.499999999999993
  endloop
endfacet
facet normal -3.878028884518661e-14 -1.0 3.6881063075425e-15
  outer loop
    vertex 1467.1897720655686 303.7166581274614 21.99999999999999
    vertex 1444.1897720658358 303.71665812746227 25.499999999999993
    vertex 1467.1897720655686 303.7166581274614 18.49999999999999
  endloop
endfacet
facet normal -3.878028884518661e-14 -1.0 3.6881063075425e-15
  outer loop
    vertex 1471.1897739213475 303.7166581274613 22.000002120868185
    vertex 1444.1897720658358 303.71665812746227 25.499999999999993
    vertex 1467.1897720655686 303.7166581274614 21.99999999999999
  endloop
endfacet
facet normal -3.878028884518661e-14 -1.0 3.6881063075425e-15
  outer loop
    vertex 1471.1897720655888 303.7166581274613 25.500002120867208
    vertex 1444.1897720658358 303.71665812746227 25.499999999999993
    vertex 1471.1897739213475 303.7166581274613 22.000002120868185
  endloop
endfacet
endsolid 3d_modell
