solid 3d_modell
facet normal 0.0 0.0 -1.0
  outer loop
    vertex 1012.4520286253969 -58.34996759205617 0.0
    vertex 1002.4520286253968 -75.34996759205612 0.0
    vertex 1002.4520286253968 -58.34996759205617 0.0
  endloop
endfacet
facet normal 0.0 0.0 -1.0
  outer loop
    vertex 886.452028625397 -75.34996759205612 0.0
    vertex 876.4520286253969 -85.34996759205612 0.0
    vertex 876.4520286253969 -75.34996759205612 0.0
  endloop
endfacet
facet normal 0.0 0.0 -1.0
  outer loop
    vertex 876.4520286253969 -85.34996759205612 0.0
    vertex 886.452028625397 -75.34996759205612 0.0
    vertex 1012.4520286253969 -85.34996759205612 0.0
  endloop
endfacet
facet normal 0.0 0.0 -1.0
  outer loop
    vertex 1012.4520286253969 -85.34996759205612 0.0
    vertex 886.452028625397 -75.34996759205612 0.0
    vertex 1002.4520286253968 -75.34996759205612 0.0
  endloop
endfacet
facet normal 0.0 0.0 -1.0
  outer loop
    vertex 1012.4520286253969 -85.34996759205612 0.0
    vertex 1002.4520286253968 -75.34996759205612 0.0
    vertex 1012.4520286253969 -58.34996759205617 0.0
  endloop
endfacet
facet normal 0.0 0.0 1.0
  outer loop
    vertex 1012.4520286253969 -85.34996759205612 10.0
    vertex 876.4520286253969 -75.34996759205612 10.0
    vertex 876.4520286253969 -85.34996759205612 10.0
  endloop
endfacet
facet normal 0.0 0.0 1.0
  outer loop
    vertex 876.4520286253969 -75.34996759205612 10.0
    vertex 1012.4520286253969 -85.34996759205612 10.0
    vertex 1002.4520286253968 -75.34996759205612 10.0
  endloop
endfacet
facet normal 0.0 0.0 1.0
  outer loop
    vertex 1002.4520286253968 -75.34996759205612 10.0
    vertex 1012.4520286253969 -85.34996759205612 10.0
    vertex 1002.4520286253968 -58.34996759205617 10.0
  endloop
endfacet
facet normal 0.0 0.0 1.0
  outer loop
    vertex 1002.4520286253968 -58.34996759205617 10.0
    vertex 1012.4520286253969 -85.34996759205612 10.0
    vertex 1012.4520286253969 -58.34996759205617 10.0
  endloop
endfacet
facet normal -1.0 0.0 0.0
  outer loop
    vertex 876.4520286253969 -75.34996759205612 10.0
    vertex 876.4520286253969 -85.34996759205612 0.0
    vertex 876.4520286253969 -85.34996759205612 10.0
  endloop
endfacet
facet normal -1.0 0.0 0.0
  outer loop
    vertex 876.4520286253969 -85.34996759205612 0.0
    vertex 876.4520286253969 -75.34996759205612 10.0
    vertex 876.4520286253969 -75.34996759205612 0.0
  endloop
endfacet
facet normal 0.0 1.0 0.0
  outer loop
    vertex 876.4520286253969 -75.34996759205612 0.0
    vertex 882.3913684536171 -75.34996759205612 3.939339828220181
    vertex 886.452028625397 -75.34996759205612 0.0
  endloop
endfacet
facet normal 0.0 1.0 0.0
  outer loop
    vertex 882.3913684536171 -75.34996759205612 3.939339828220181
    vertex 876.4520286253969 -75.34996759205612 0.0
    vertex 876.4520286253969 -75.34996759205612 10.0
  endloop
endfacet
facet normal 0.0 1.0 0.0
  outer loop
    vertex 886.452028625397 -75.34996759205612 0.0
    vertex 882.3913684536171 -75.34996759205612 3.939339828220181
    vertex 882.7020286253969 -75.34996759205612 3.7009618943233433
  endloop
endfacet
facet normal 0.0 1.0 0.0
  outer loop
    vertex 886.452028625397 -75.34996759205612 0.0
    vertex 882.7020286253969 -75.34996759205612 3.7009618943233433
    vertex 883.0638000577433 -75.34996759205612 3.551111260566397
  endloop
endfacet
facet normal 0.0 1.0 0.0
  outer loop
    vertex 886.452028625397 -75.34996759205612 0.0
    vertex 883.0638000577433 -75.34996759205612 3.551111260566397
    vertex 883.452028625397 -75.34996759205612 3.500000000000002
  endloop
endfacet
facet normal 0.0 1.0 0.0
  outer loop
    vertex 886.452028625397 -75.34996759205612 0.0
    vertex 883.452028625397 -75.34996759205612 3.500000000000002
    vertex 1002.4520286253968 -75.34996759205612 0.0
  endloop
endfacet
facet normal 0.0 1.0 0.0
  outer loop
    vertex 882.3913684536171 -75.34996759205612 3.939339828220181
    vertex 876.4520286253969 -75.34996759205612 10.0
    vertex 882.1529905197203 -75.34996759205612 4.250000000000001
  endloop
endfacet
facet normal 0.0 1.0 0.0
  outer loop
    vertex 882.1529905197203 -75.34996759205612 4.250000000000001
    vertex 876.4520286253969 -75.34996759205612 10.0
    vertex 882.0031398859635 -75.34996759205612 4.611771432346221
  endloop
endfacet
facet normal 0.0 1.0 0.0
  outer loop
    vertex 882.0031398859635 -75.34996759205612 4.611771432346221
    vertex 876.4520286253969 -75.34996759205612 10.0
    vertex 881.9520286253969 -75.34996759205612 4.999999999999999
  endloop
endfacet
facet normal 0.0 1.0 0.0
  outer loop
    vertex 881.9520286253969 -75.34996759205612 4.999999999999999
    vertex 876.4520286253969 -75.34996759205612 10.0
    vertex 882.0031398859635 -75.34996759205612 5.388228567653783
  endloop
endfacet
facet normal 0.0 1.0 0.0
  outer loop
    vertex 882.0031398859635 -75.34996759205612 5.388228567653783
    vertex 876.4520286253969 -75.34996759205612 10.0
    vertex 882.1529905197203 -75.34996759205612 5.7500000000000036
  endloop
endfacet
facet normal 0.0 1.0 0.0
  outer loop
    vertex 882.1529905197203 -75.34996759205612 5.7500000000000036
    vertex 876.4520286253969 -75.34996759205612 10.0
    vertex 882.3913684536171 -75.34996759205612 6.060660171779824
  endloop
endfacet
facet normal 0.0 1.0 0.0
  outer loop
    vertex 882.3913684536171 -75.34996759205612 6.060660171779824
    vertex 876.4520286253969 -75.34996759205612 10.0
    vertex 882.7020286253969 -75.34996759205612 6.299038105676661
  endloop
endfacet
facet normal 0.0 1.0 0.0
  outer loop
    vertex 882.7020286253969 -75.34996759205612 6.299038105676661
    vertex 876.4520286253969 -75.34996759205612 10.0
    vertex 883.0638000577433 -75.34996759205612 6.448888739433602
  endloop
endfacet
facet normal 0.0 1.0 0.0
  outer loop
    vertex 883.0638000577433 -75.34996759205612 6.448888739433602
    vertex 876.4520286253969 -75.34996759205612 10.0
    vertex 883.452028625397 -75.34996759205612 6.500000000000002
  endloop
endfacet
facet normal 0.0 1.0 0.0
  outer loop
    vertex 883.452028625397 -75.34996759205612 3.500000000000002
    vertex 1002.4520286253968 -75.34996759205612 10.0
    vertex 1002.4520286253968 -75.34996759205612 0.0
  endloop
endfacet
facet normal 0.0 1.0 0.0
  outer loop
    vertex 1002.4520286253968 -75.34996759205612 10.0
    vertex 883.452028625397 -75.34996759205612 3.500000000000002
    vertex 883.8402571930507 -75.34996759205612 3.551111260566397
  endloop
endfacet
facet normal 0.0 1.0 0.0
  outer loop
    vertex 1002.4520286253968 -75.34996759205612 10.0
    vertex 883.8402571930507 -75.34996759205612 3.551111260566397
    vertex 884.202028625397 -75.34996759205612 3.7009618943233433
  endloop
endfacet
facet normal 0.0 1.0 0.0
  outer loop
    vertex 1002.4520286253968 -75.34996759205612 10.0
    vertex 884.202028625397 -75.34996759205612 3.7009618943233433
    vertex 884.5126887971768 -75.34996759205612 3.939339828220178
  endloop
endfacet
facet normal 0.0 1.0 0.0
  outer loop
    vertex 1002.4520286253968 -75.34996759205612 10.0
    vertex 884.5126887971768 -75.34996759205612 3.939339828220178
    vertex 884.7510667310736 -75.34996759205612 4.250000000000001
  endloop
endfacet
facet normal 0.0 1.0 0.0
  outer loop
    vertex 1002.4520286253968 -75.34996759205612 10.0
    vertex 884.7510667310736 -75.34996759205612 4.250000000000001
    vertex 884.9009173648304 -75.34996759205612 4.611771432346221
  endloop
endfacet
facet normal 0.0 1.0 0.0
  outer loop
    vertex 1002.4520286253968 -75.34996759205612 10.0
    vertex 884.9009173648304 -75.34996759205612 4.611771432346221
    vertex 884.952028625397 -75.34996759205612 4.999999999999999
  endloop
endfacet
facet normal 0.0 1.0 0.0
  outer loop
    vertex 1002.4520286253968 -75.34996759205612 10.0
    vertex 884.952028625397 -75.34996759205612 4.999999999999999
    vertex 884.9009173648304 -75.34996759205612 5.388228567653783
  endloop
endfacet
facet normal 0.0 1.0 0.0
  outer loop
    vertex 1002.4520286253968 -75.34996759205612 10.0
    vertex 884.9009173648304 -75.34996759205612 5.388228567653783
    vertex 884.7510667310736 -75.34996759205612 5.7500000000000036
  endloop
endfacet
facet normal 0.0 1.0 0.0
  outer loop
    vertex 1002.4520286253968 -75.34996759205612 10.0
    vertex 884.7510667310736 -75.34996759205612 5.7500000000000036
    vertex 884.5126887971768 -75.34996759205612 6.060660171779824
  endloop
endfacet
facet normal 0.0 1.0 0.0
  outer loop
    vertex 1002.4520286253968 -75.34996759205612 10.0
    vertex 884.5126887971768 -75.34996759205612 6.060660171779824
    vertex 884.202028625397 -75.34996759205612 6.299038105676661
  endloop
endfacet
facet normal 0.0 1.0 0.0
  outer loop
    vertex 1002.4520286253968 -75.34996759205612 10.0
    vertex 884.202028625397 -75.34996759205612 6.299038105676661
    vertex 883.8402571930507 -75.34996759205612 6.448888739433602
  endloop
endfacet
facet normal 0.0 1.0 0.0
  outer loop
    vertex 1002.4520286253968 -75.34996759205612 10.0
    vertex 883.8402571930507 -75.34996759205612 6.448888739433602
    vertex 883.452028625397 -75.34996759205612 6.500000000000002
  endloop
endfacet
facet normal 0.0 1.0 0.0
  outer loop
    vertex 1002.4520286253968 -75.34996759205612 10.0
    vertex 883.452028625397 -75.34996759205612 6.500000000000002
    vertex 876.4520286253969 -75.34996759205612 10.0
  endloop
endfacet
facet normal -1.0 0.0 0.0
  outer loop
    vertex 1002.4520286253968 -58.34996759205617 10.0
    vertex 1002.4520286253968 -75.34996759205612 0.0
    vertex 1002.4520286253968 -75.34996759205612 10.0
  endloop
endfacet
facet normal -1.0 0.0 0.0
  outer loop
    vertex 1002.4520286253968 -75.34996759205612 0.0
    vertex 1002.4520286253968 -58.34996759205617 10.0
    vertex 1002.4520286253968 -58.34996759205617 0.0
  endloop
endfacet
facet normal 0.0 1.0 0.0
  outer loop
    vertex 1002.4520286253968 -58.34996759205617 10.0
    vertex 1012.4520286253969 -58.34996759205617 0.0
    vertex 1002.4520286253968 -58.34996759205617 0.0
  endloop
endfacet
facet normal 0.0 1.0 0.0
  outer loop
    vertex 1012.4520286253969 -58.34996759205617 0.0
    vertex 1002.4520286253968 -58.34996759205617 10.0
    vertex 1012.4520286253969 -58.34996759205617 10.0
  endloop
endfacet
facet normal 1.0 0.0 0.0
  outer loop
    vertex 1012.4520286253969 -58.34996759205617 0.0
    vertex 1012.4520286253969 -85.34996759205612 10.0
    vertex 1012.4520286253969 -85.34996759205612 0.0
  endloop
endfacet
facet normal 1.0 0.0 0.0
  outer loop
    vertex 1012.4520286253969 -85.34996759205612 10.0
    vertex 1012.4520286253969 -58.34996759205617 0.0
    vertex 1012.4520286253969 -58.34996759205617 10.0
  endloop
endfacet
facet normal 0.0 -1.0 0.0
  outer loop
    vertex 1012.4520286253969 -85.34996759205612 10.0
    vertex 876.4520286253969 -85.34996759205612 0.0
    vertex 1012.4520286253969 -85.34996759205612 0.0
  endloop
endfacet
facet normal 0.0 -1.0 0.0
  outer loop
    vertex 876.4520286253969 -85.34996759205612 0.0
    vertex 1012.4520286253969 -85.34996759205612 10.0
    vertex 883.452028625397 -85.34996759205609 3.500000000000002
  endloop
endfacet
facet normal 0.0 -1.0 0.0
  outer loop
    vertex 883.452028625397 -85.34996759205609 3.500000000000002
    vertex 1012.4520286253969 -85.34996759205612 10.0
    vertex 883.8402571930507 -85.34996759205609 3.551111260566397
  endloop
endfacet
facet normal 0.0 -1.0 0.0
  outer loop
    vertex 883.8402571930507 -85.34996759205609 3.551111260566397
    vertex 1012.4520286253969 -85.34996759205612 10.0
    vertex 884.202028625397 -85.34996759205609 3.7009618943233433
  endloop
endfacet
facet normal 0.0 -1.0 0.0
  outer loop
    vertex 884.202028625397 -85.34996759205609 3.7009618943233433
    vertex 1012.4520286253969 -85.34996759205612 10.0
    vertex 884.5126887971768 -85.34996759205609 3.939339828220178
  endloop
endfacet
facet normal 0.0 -1.0 0.0
  outer loop
    vertex 884.5126887971768 -85.34996759205609 3.939339828220178
    vertex 1012.4520286253969 -85.34996759205612 10.0
    vertex 884.7510667310736 -85.34996759205609 4.250000000000001
  endloop
endfacet
facet normal 0.0 -1.0 0.0
  outer loop
    vertex 884.7510667310736 -85.34996759205609 4.250000000000001
    vertex 1012.4520286253969 -85.34996759205612 10.0
    vertex 884.9009173648304 -85.34996759205609 4.611771432346221
  endloop
endfacet
facet normal 0.0 -1.0 0.0
  outer loop
    vertex 884.9009173648304 -85.34996759205609 4.611771432346221
    vertex 1012.4520286253969 -85.34996759205612 10.0
    vertex 884.952028625397 -85.34996759205609 4.999999999999999
  endloop
endfacet
facet normal 0.0 -1.0 0.0
  outer loop
    vertex 884.952028625397 -85.34996759205609 4.999999999999999
    vertex 1012.4520286253969 -85.34996759205612 10.0
    vertex 884.9009173648304 -85.34996759205609 5.388228567653783
  endloop
endfacet
facet normal 0.0 -1.0 0.0
  outer loop
    vertex 884.9009173648304 -85.34996759205609 5.388228567653783
    vertex 1012.4520286253969 -85.34996759205612 10.0
    vertex 884.7510667310736 -85.34996759205609 5.7500000000000036
  endloop
endfacet
facet normal 0.0 -1.0 0.0
  outer loop
    vertex 884.7510667310736 -85.34996759205609 5.7500000000000036
    vertex 1012.4520286253969 -85.34996759205612 10.0
    vertex 884.5126887971768 -85.34996759205609 6.060660171779824
  endloop
endfacet
facet normal 0.0 -1.0 0.0
  outer loop
    vertex 884.5126887971768 -85.34996759205609 6.060660171779824
    vertex 1012.4520286253969 -85.34996759205612 10.0
    vertex 884.202028625397 -85.34996759205609 6.299038105676661
  endloop
endfacet
facet normal 0.0 -1.0 0.0
  outer loop
    vertex 884.202028625397 -85.34996759205609 6.299038105676661
    vertex 1012.4520286253969 -85.34996759205612 10.0
    vertex 883.8402571930507 -85.34996759205609 6.448888739433602
  endloop
endfacet
facet normal 0.0 -1.0 0.0
  outer loop
    vertex 883.8402571930507 -85.34996759205609 6.448888739433602
    vertex 1012.4520286253969 -85.34996759205612 10.0
    vertex 883.452028625397 -85.34996759205609 6.500000000000002
  endloop
endfacet
facet normal 0.0 -1.0 0.0
  outer loop
    vertex 876.4520286253969 -85.34996759205612 0.0
    vertex 882.3913684536171 -85.34996759205609 3.939339828220181
    vertex 876.4520286253969 -85.34996759205612 10.0
  endloop
endfacet
facet normal 0.0 -1.0 0.0
  outer loop
    vertex 882.3913684536171 -85.34996759205609 3.939339828220181
    vertex 876.4520286253969 -85.34996759205612 0.0
    vertex 882.7020286253969 -85.34996759205609 3.7009618943233433
  endloop
endfacet
facet normal 0.0 -1.0 0.0
  outer loop
    vertex 882.7020286253969 -85.34996759205609 3.7009618943233433
    vertex 876.4520286253969 -85.34996759205612 0.0
    vertex 883.0638000577433 -85.34996759205609 3.551111260566397
  endloop
endfacet
facet normal 0.0 -1.0 0.0
  outer loop
    vertex 883.0638000577433 -85.34996759205609 3.551111260566397
    vertex 876.4520286253969 -85.34996759205612 0.0
    vertex 883.452028625397 -85.34996759205609 3.500000000000002
  endloop
endfacet
facet normal 0.0 -1.0 0.0
  outer loop
    vertex 876.4520286253969 -85.34996759205612 10.0
    vertex 882.3913684536171 -85.34996759205609 3.939339828220181
    vertex 882.1529905197203 -85.34996759205609 4.250000000000001
  endloop
endfacet
facet normal 0.0 -1.0 0.0
  outer loop
    vertex 876.4520286253969 -85.34996759205612 10.0
    vertex 882.1529905197203 -85.34996759205609 4.250000000000001
    vertex 882.0031398859635 -85.34996759205609 4.611771432346221
  endloop
endfacet
facet normal 0.0 -1.0 0.0
  outer loop
    vertex 876.4520286253969 -85.34996759205612 10.0
    vertex 882.0031398859635 -85.34996759205609 4.611771432346221
    vertex 881.9520286253969 -85.34996759205609 4.999999999999999
  endloop
endfacet
facet normal 0.0 -1.0 0.0
  outer loop
    vertex 876.4520286253969 -85.34996759205612 10.0
    vertex 881.9520286253969 -85.34996759205609 4.999999999999999
    vertex 882.0031398859635 -85.34996759205609 5.388228567653783
  endloop
endfacet
facet normal 0.0 -1.0 0.0
  outer loop
    vertex 876.4520286253969 -85.34996759205612 10.0
    vertex 882.0031398859635 -85.34996759205609 5.388228567653783
    vertex 882.1529905197203 -85.34996759205609 5.7500000000000036
  endloop
endfacet
facet normal 0.0 -1.0 0.0
  outer loop
    vertex 876.4520286253969 -85.34996759205612 10.0
    vertex 882.1529905197203 -85.34996759205609 5.7500000000000036
    vertex 882.3913684536171 -85.34996759205609 6.060660171779824
  endloop
endfacet
facet normal 0.0 -1.0 0.0
  outer loop
    vertex 876.4520286253969 -85.34996759205612 10.0
    vertex 882.3913684536171 -85.34996759205609 6.060660171779824
    vertex 882.7020286253969 -85.34996759205609 6.299038105676661
  endloop
endfacet
facet normal 0.0 -1.0 0.0
  outer loop
    vertex 876.4520286253969 -85.34996759205612 10.0
    vertex 882.7020286253969 -85.34996759205609 6.299038105676661
    vertex 883.0638000577433 -85.34996759205609 6.448888739433602
  endloop
endfacet
facet normal 0.0 -1.0 0.0
  outer loop
    vertex 876.4520286253969 -85.34996759205612 10.0
    vertex 883.0638000577433 -85.34996759205609 6.448888739433602
    vertex 883.452028625397 -85.34996759205609 6.500000000000002
  endloop
endfacet
facet normal 0.0 -1.0 0.0
  outer loop
    vertex 876.4520286253969 -85.34996759205612 10.0
    vertex 883.452028625397 -85.34996759205609 6.500000000000002
    vertex 1012.4520286253969 -85.34996759205612 10.0
  endloop
endfacet
facet normal 0.793353340291302 0.0 0.6087614290086335
  outer loop
    vertex 882.3913684536171 -75.34996759205612 3.939339828220181
    vertex 882.1529905197203 -85.34996759205609 4.250000000000001
    vertex 882.3913684536171 -85.34996759205609 3.939339828220181
  endloop
endfacet
facet normal 0.793353340291302 0.0 0.6087614290086335
  outer loop
    vertex 882.1529905197203 -85.34996759205609 4.250000000000001
    vertex 882.3913684536171 -75.34996759205612 3.939339828220181
    vertex 882.1529905197203 -75.34996759205612 4.250000000000001
  endloop
endfacet
facet normal 0.9238795325113007 0.0 0.3826834323650562
  outer loop
    vertex 882.1529905197203 -75.34996759205612 4.250000000000001
    vertex 882.0031398859635 -85.34996759205609 4.611771432346221
    vertex 882.1529905197203 -85.34996759205609 4.250000000000001
  endloop
endfacet
facet normal 0.9238795325113007 0.0 0.3826834323650562
  outer loop
    vertex 882.0031398859635 -85.34996759205609 4.611771432346221
    vertex 882.1529905197203 -75.34996759205612 4.250000000000001
    vertex 882.0031398859635 -75.34996759205612 4.611771432346221
  endloop
endfacet
facet normal 0.9914448613737741 0.0 0.1305261922203287
  outer loop
    vertex 882.0031398859635 -75.34996759205612 4.611771432346221
    vertex 881.9520286253969 -85.34996759205609 4.999999999999999
    vertex 882.0031398859635 -85.34996759205609 4.611771432346221
  endloop
endfacet
facet normal 0.9914448613737741 0.0 0.1305261922203287
  outer loop
    vertex 881.9520286253969 -85.34996759205609 4.999999999999999
    vertex 882.0031398859635 -75.34996759205612 4.611771432346221
    vertex 881.9520286253969 -75.34996759205612 4.999999999999999
  endloop
endfacet
facet normal 0.9914448613737743 0.0 -0.13052619222032683
  outer loop
    vertex 881.9520286253969 -75.34996759205612 4.999999999999999
    vertex 882.0031398859635 -85.34996759205609 5.388228567653783
    vertex 881.9520286253969 -85.34996759205609 4.999999999999999
  endloop
endfacet
facet normal 0.9914448613737743 0.0 -0.13052619222032683
  outer loop
    vertex 882.0031398859635 -85.34996759205609 5.388228567653783
    vertex 881.9520286253969 -75.34996759205612 4.999999999999999
    vertex 882.0031398859635 -75.34996759205612 5.388228567653783
  endloop
endfacet
facet normal 0.9238795325113007 0.0 -0.3826834323650562
  outer loop
    vertex 882.0031398859635 -75.34996759205612 5.388228567653783
    vertex 882.1529905197203 -85.34996759205609 5.7500000000000036
    vertex 882.0031398859635 -85.34996759205609 5.388228567653783
  endloop
endfacet
facet normal 0.9238795325113007 0.0 -0.3826834323650562
  outer loop
    vertex 882.1529905197203 -85.34996759205609 5.7500000000000036
    vertex 882.0031398859635 -75.34996759205612 5.388228567653783
    vertex 882.1529905197203 -75.34996759205612 5.7500000000000036
  endloop
endfacet
facet normal 0.7933533402913019 0.0 -0.6087614290086336
  outer loop
    vertex 882.1529905197203 -75.34996759205612 5.7500000000000036
    vertex 882.3913684536171 -85.34996759205609 6.060660171779824
    vertex 882.1529905197203 -85.34996759205609 5.7500000000000036
  endloop
endfacet
facet normal 0.7933533402913019 0.0 -0.6087614290086336
  outer loop
    vertex 882.3913684536171 -85.34996759205609 6.060660171779824
    vertex 882.1529905197203 -75.34996759205612 5.7500000000000036
    vertex 882.3913684536171 -75.34996759205612 6.060660171779824
  endloop
endfacet
facet normal 0.6087614290087591 0.0 -0.7933533402912059
  outer loop
    vertex 882.7020286253969 -75.34996759205612 6.299038105676661
    vertex 882.3913684536171 -85.34996759205609 6.060660171779824
    vertex 882.3913684536171 -75.34996759205612 6.060660171779824
  endloop
endfacet
facet normal 0.6087614290087591 0.0 -0.7933533402912059
  outer loop
    vertex 882.3913684536171 -85.34996759205609 6.060660171779824
    vertex 882.7020286253969 -75.34996759205612 6.299038105676661
    vertex 882.7020286253969 -85.34996759205609 6.299038105676661
  endloop
endfacet
facet normal 0.3826834323650096 0.0 -0.92387953251132
  outer loop
    vertex 883.0638000577433 -75.34996759205612 6.448888739433602
    vertex 882.7020286253969 -85.34996759205609 6.299038105676661
    vertex 882.7020286253969 -75.34996759205612 6.299038105676661
  endloop
endfacet
facet normal 0.3826834323650096 0.0 -0.92387953251132
  outer loop
    vertex 882.7020286253969 -85.34996759205609 6.299038105676661
    vertex 883.0638000577433 -75.34996759205612 6.448888739433602
    vertex 883.0638000577433 -85.34996759205609 6.448888739433602
  endloop
endfacet
facet normal 0.13052619222008202 0.0 -0.9914448613738064
  outer loop
    vertex 883.452028625397 -75.34996759205612 6.500000000000002
    vertex 883.0638000577433 -85.34996759205609 6.448888739433602
    vertex 883.0638000577433 -75.34996759205612 6.448888739433602
  endloop
endfacet
facet normal 0.13052619222008202 0.0 -0.9914448613738064
  outer loop
    vertex 883.0638000577433 -85.34996759205609 6.448888739433602
    vertex 883.452028625397 -75.34996759205612 6.500000000000002
    vertex 883.452028625397 -85.34996759205609 6.500000000000002
  endloop
endfacet
facet normal -0.13052619222008202 0.0 -0.9914448613738064
  outer loop
    vertex 883.8402571930507 -75.34996759205612 6.448888739433602
    vertex 883.452028625397 -85.34996759205609 6.500000000000002
    vertex 883.452028625397 -75.34996759205612 6.500000000000002
  endloop
endfacet
facet normal -0.13052619222008202 0.0 -0.9914448613738064
  outer loop
    vertex 883.452028625397 -85.34996759205609 6.500000000000002
    vertex 883.8402571930507 -75.34996759205612 6.448888739433602
    vertex 883.8402571930507 -85.34996759205609 6.448888739433602
  endloop
endfacet
facet normal -0.3826834323650096 0.0 -0.92387953251132
  outer loop
    vertex 884.202028625397 -75.34996759205612 6.299038105676661
    vertex 883.8402571930507 -85.34996759205609 6.448888739433602
    vertex 883.8402571930507 -75.34996759205612 6.448888739433602
  endloop
endfacet
facet normal -0.3826834323650096 0.0 -0.92387953251132
  outer loop
    vertex 883.8402571930507 -85.34996759205609 6.448888739433602
    vertex 884.202028625397 -75.34996759205612 6.299038105676661
    vertex 884.202028625397 -85.34996759205609 6.299038105676661
  endloop
endfacet
facet normal -0.6087614290087591 0.0 -0.7933533402912059
  outer loop
    vertex 884.5126887971768 -75.34996759205612 6.060660171779824
    vertex 884.202028625397 -85.34996759205609 6.299038105676661
    vertex 884.202028625397 -75.34996759205612 6.299038105676661
  endloop
endfacet
facet normal -0.6087614290087591 0.0 -0.7933533402912059
  outer loop
    vertex 884.202028625397 -85.34996759205609 6.299038105676661
    vertex 884.5126887971768 -75.34996759205612 6.060660171779824
    vertex 884.5126887971768 -85.34996759205609 6.060660171779824
  endloop
endfacet
facet normal -0.793353340291302 0.0 -0.6087614290086335
  outer loop
    vertex 884.5126887971768 -75.34996759205612 6.060660171779824
    vertex 884.7510667310736 -85.34996759205609 5.7500000000000036
    vertex 884.5126887971768 -85.34996759205609 6.060660171779824
  endloop
endfacet
facet normal -0.793353340291302 0.0 -0.6087614290086335
  outer loop
    vertex 884.7510667310736 -85.34996759205609 5.7500000000000036
    vertex 884.5126887971768 -75.34996759205612 6.060660171779824
    vertex 884.7510667310736 -75.34996759205612 5.7500000000000036
  endloop
endfacet
facet normal -0.9238795325113007 0.0 -0.3826834323650562
  outer loop
    vertex 884.7510667310736 -75.34996759205612 5.7500000000000036
    vertex 884.9009173648304 -85.34996759205609 5.388228567653783
    vertex 884.7510667310736 -85.34996759205609 5.7500000000000036
  endloop
endfacet
facet normal -0.9238795325113007 0.0 -0.3826834323650562
  outer loop
    vertex 884.9009173648304 -85.34996759205609 5.388228567653783
    vertex 884.7510667310736 -75.34996759205612 5.7500000000000036
    vertex 884.9009173648304 -75.34996759205612 5.388228567653783
  endloop
endfacet
facet normal -0.9914448613737743 0.0 -0.13052619222032683
  outer loop
    vertex 884.9009173648304 -75.34996759205612 5.388228567653783
    vertex 884.952028625397 -85.34996759205609 4.999999999999999
    vertex 884.9009173648304 -85.34996759205609 5.388228567653783
  endloop
endfacet
facet normal -0.9914448613737743 0.0 -0.13052619222032683
  outer loop
    vertex 884.952028625397 -85.34996759205609 4.999999999999999
    vertex 884.9009173648304 -75.34996759205612 5.388228567653783
    vertex 884.952028625397 -75.34996759205612 4.999999999999999
  endloop
endfacet
facet normal -0.9914448613737741 0.0 0.1305261922203287
  outer loop
    vertex 884.952028625397 -75.34996759205612 4.999999999999999
    vertex 884.9009173648304 -85.34996759205609 4.611771432346221
    vertex 884.952028625397 -85.34996759205609 4.999999999999999
  endloop
endfacet
facet normal -0.9914448613737741 0.0 0.1305261922203287
  outer loop
    vertex 884.9009173648304 -85.34996759205609 4.611771432346221
    vertex 884.952028625397 -75.34996759205612 4.999999999999999
    vertex 884.9009173648304 -75.34996759205612 4.611771432346221
  endloop
endfacet
facet normal -0.9238795325113007 0.0 0.3826834323650562
  outer loop
    vertex 884.9009173648304 -75.34996759205612 4.611771432346221
    vertex 884.7510667310736 -85.34996759205609 4.250000000000001
    vertex 884.9009173648304 -85.34996759205609 4.611771432346221
  endloop
endfacet
facet normal -0.9238795325113007 0.0 0.3826834323650562
  outer loop
    vertex 884.7510667310736 -85.34996759205609 4.250000000000001
    vertex 884.9009173648304 -75.34996759205612 4.611771432346221
    vertex 884.7510667310736 -75.34996759205612 4.250000000000001
  endloop
endfacet
facet normal -0.7933533402913047 0.0 0.6087614290086301
  outer loop
    vertex 884.7510667310736 -75.34996759205612 4.250000000000001
    vertex 884.5126887971768 -85.34996759205609 3.939339828220178
    vertex 884.7510667310736 -85.34996759205609 4.250000000000001
  endloop
endfacet
facet normal -0.7933533402913047 0.0 0.6087614290086301
  outer loop
    vertex 884.5126887971768 -85.34996759205609 3.939339828220178
    vertex 884.7510667310736 -75.34996759205612 4.250000000000001
    vertex 884.5126887971768 -75.34996759205612 3.939339828220178
  endloop
endfacet
facet normal -0.6087614290087545 0.0 0.7933533402912093
  outer loop
    vertex 884.5126887971768 -85.34996759205609 3.939339828220178
    vertex 884.202028625397 -75.34996759205612 3.7009618943233433
    vertex 884.202028625397 -85.34996759205609 3.7009618943233433
  endloop
endfacet
facet normal -0.6087614290087545 0.0 0.7933533402912093
  outer loop
    vertex 884.202028625397 -75.34996759205612 3.7009618943233433
    vertex 884.5126887971768 -85.34996759205609 3.939339828220178
    vertex 884.5126887971768 -75.34996759205612 3.939339828220178
  endloop
endfacet
facet normal -0.38268343236502184 0.0 0.9238795325113149
  outer loop
    vertex 884.202028625397 -85.34996759205609 3.7009618943233433
    vertex 883.8402571930507 -75.34996759205612 3.551111260566397
    vertex 883.8402571930507 -85.34996759205609 3.551111260566397
  endloop
endfacet
facet normal -0.38268343236502184 0.0 0.9238795325113149
  outer loop
    vertex 883.8402571930507 -75.34996759205612 3.551111260566397
    vertex 884.202028625397 -85.34996759205609 3.7009618943233433
    vertex 884.202028625397 -75.34996759205612 3.7009618943233433
  endloop
endfacet
facet normal -0.1305261922200679 0.0 0.9914448613738084
  outer loop
    vertex 883.8402571930507 -85.34996759205609 3.551111260566397
    vertex 883.452028625397 -75.34996759205612 3.500000000000002
    vertex 883.452028625397 -85.34996759205609 3.500000000000002
  endloop
endfacet
facet normal -0.1305261922200679 0.0 0.9914448613738084
  outer loop
    vertex 883.452028625397 -75.34996759205612 3.500000000000002
    vertex 883.8402571930507 -85.34996759205609 3.551111260566397
    vertex 883.8402571930507 -75.34996759205612 3.551111260566397
  endloop
endfacet
facet normal 0.1305261922200679 0.0 0.9914448613738084
  outer loop
    vertex 883.452028625397 -85.34996759205609 3.500000000000002
    vertex 883.0638000577433 -75.34996759205612 3.551111260566397
    vertex 883.0638000577433 -85.34996759205609 3.551111260566397
  endloop
endfacet
facet normal 0.1305261922200679 0.0 0.9914448613738084
  outer loop
    vertex 883.0638000577433 -75.34996759205612 3.551111260566397
    vertex 883.452028625397 -85.34996759205609 3.500000000000002
    vertex 883.452028625397 -75.34996759205612 3.500000000000002
  endloop
endfacet
facet normal 0.38268343236502184 0.0 0.9238795325113149
  outer loop
    vertex 883.0638000577433 -85.34996759205609 3.551111260566397
    vertex 882.7020286253969 -75.34996759205612 3.7009618943233433
    vertex 882.7020286253969 -85.34996759205609 3.7009618943233433
  endloop
endfacet
facet normal 0.38268343236502184 0.0 0.9238795325113149
  outer loop
    vertex 882.7020286253969 -75.34996759205612 3.7009618943233433
    vertex 883.0638000577433 -85.34996759205609 3.551111260566397
    vertex 883.0638000577433 -75.34996759205612 3.551111260566397
  endloop
endfacet
facet normal 0.6087614290087591 0.0 0.7933533402912059
  outer loop
    vertex 882.7020286253969 -85.34996759205609 3.7009618943233433
    vertex 882.3913684536171 -75.34996759205612 3.939339828220181
    vertex 882.3913684536171 -85.34996759205609 3.939339828220181
  endloop
endfacet
facet normal 0.6087614290087591 0.0 0.7933533402912059
  outer loop
    vertex 882.3913684536171 -75.34996759205612 3.939339828220181
    vertex 882.7020286253969 -85.34996759205609 3.7009618943233433
    vertex 882.7020286253969 -75.34996759205612 3.7009618943233433
  endloop
endfacet
endsolid 3d_modell
